<?xml version="1.0" encoding="UTF-8" standalone="no"?>
<!DOCTYPE svg PUBLIC "-//W3C//DTD SVG 1.1//EN" "http://www.w3.org/Graphics/SVG/1.1/DTD/svg11.dtd">
<svg width="100%" height="100%" viewBox="0 0 381 266" version="1.1" xmlns="http://www.w3.org/2000/svg" xmlns:xlink="http://www.w3.org/1999/xlink" xml:space="preserve" xmlns:serif="http://www.serif.com/" style="fill-rule:evenodd;clip-rule:evenodd;stroke-linejoin:round;stroke-miterlimit:2;">
    <g transform="matrix(1,0,0,1,-3086.275218,-459.068044)">
        <g transform="matrix(4.166667,0,0,4.166667,0,0)">
            <g transform="matrix(1,0,0,1,801.8301,150.475)">
                <path d="M0,-16.244L-0.958,-14.835C-3.558,-10.953 -5.131,-6.732 -6.668,-2.344C-7.676,0.56 -12.559,-1.802 -13.367,-3.673C-16.055,-9.635 -18.527,-15.948 -20.462,-22.443C-22.35,-15.138 -23.1,-7.279 -24.374,-0.355C-24.981,2.746 -31.956,-1.411 -32.637,-3.019C-34.761,-7.875 -37.93,-14.372 -42.18,-19.717C-38.266,-12.344 -35.501,-3.856 -34.32,4.657C-26.782,3.357 -19.33,2.672 -12.158,2.056C-9.331,1.784 -6.488,1.568 -3.51,1.434C-3.271,-4.408 -1.948,-10.4 0,-16.244M-34.123,21.793C-34.524,25.256 -43.479,22.173 -43.124,19.252C-42.889,17.541 -42.78,15.803 -42.716,14.132C-47.067,15.421 -50.861,16.814 -54.062,18.476C-54.535,18.712 -55.041,18.832 -55.497,18.885C-55.321,19.612 -55.202,20.35 -55.163,20.753C-55.006,21.897 -55.094,22.508 -55.607,22.572C-56.11,22.693 -56.52,22.207 -56.808,21.271C-56.986,20.783 -57.311,19.679 -57.568,18.618C-60.651,17.596 -62.801,14.103 -59.376,12.382C-54.292,9.733 -48.724,7.854 -42.882,6.377C-44.039,-6.924 -49.288,-20.769 -57.527,-30.404C-59.31,-32.397 -56.361,-33.88 -54.542,-33.432C-44.354,-31.12 -36.661,-22.534 -31.187,-13.351C-29.816,-22.306 -28.219,-31.547 -23.63,-38.92C-22.01,-41.5 -15.129,-40.155 -14.871,-37.388C-13.995,-29.148 -12.496,-20.537 -10.034,-12.573C-5.63,-20.962 0.541,-27.655 8.273,-34.493C10.079,-36.054 16.26,-34.186 14.641,-31.37C9.452,-22.08 5.272,-10.082 4.803,1.371C7.351,1.404 9.993,1.586 12.663,1.886C18.38,2.565 24.971,3.684 29.216,7.794C32.713,11.017 26.775,12.577 24.38,10.263C20.883,7.04 14.509,6.812 10.14,6.573C9.001,6.496 7.228,6.511 4.835,6.616C4.976,8.414 5.199,10.307 5.549,11.996C6.345,15.762 -2.21,14.82 -2.801,11.895C-3.111,10.377 -3.321,8.769 -3.464,7.211C-12.183,8.029 -23.276,9.538 -33.647,11.813C-33.535,15.213 -33.67,18.553 -34.123,21.793" style="fill:rgb(237,25,58);fill-rule:nonzero;"/>
            </g>
        </g>
    </g>
</svg>
