<?xml version="1.0" encoding="UTF-8" standalone="no"?>
<!DOCTYPE svg PUBLIC "-//W3C//DTD SVG 1.1//EN" "http://www.w3.org/Graphics/SVG/1.1/DTD/svg11.dtd">
<svg width="100%" height="100%" viewBox="0 0 1901 1366" version="1.1" xmlns="http://www.w3.org/2000/svg" xmlns:xlink="http://www.w3.org/1999/xlink" xml:space="preserve" xmlns:serif="http://www.serif.com/" style="fill-rule:evenodd;clip-rule:evenodd;stroke-linejoin:round;stroke-miterlimit:2;">
    <g transform="matrix(1,0,0,1,-383.125208,-371.415924)">
        <g transform="matrix(4.166667,0,0,4.166667,0,0)">
            <g transform="matrix(1,0,0,1,481.83025,129.438491)">
                <path d="M0,-16.244L-0.958,-14.835C-3.558,-10.953 -5.131,-6.732 -6.668,-2.344C-7.676,0.56 -12.559,-1.802 -13.367,-3.673C-16.055,-9.635 -18.527,-15.948 -20.462,-22.443C-22.35,-15.138 -23.1,-7.279 -24.374,-0.355C-24.981,2.746 -31.956,-1.411 -32.637,-3.019C-34.761,-7.875 -37.93,-14.372 -42.18,-19.717C-38.266,-12.344 -35.501,-3.856 -34.32,4.657C-26.782,3.357 -19.33,2.672 -12.158,2.056C-9.331,1.784 -6.488,1.568 -3.51,1.434C-3.271,-4.408 -1.948,-10.4 0,-16.244M-34.123,21.793C-34.524,25.256 -43.479,22.173 -43.124,19.252C-42.889,17.541 -42.78,15.803 -42.716,14.132C-47.067,15.421 -50.861,16.814 -54.062,18.476C-54.535,18.712 -55.041,18.832 -55.497,18.885C-55.321,19.612 -55.202,20.35 -55.163,20.753C-55.006,21.897 -55.094,22.508 -55.607,22.572C-56.11,22.693 -56.52,22.207 -56.808,21.271C-56.986,20.783 -57.311,19.679 -57.568,18.618C-60.651,17.596 -62.801,14.103 -59.376,12.382C-54.292,9.733 -48.724,7.854 -42.882,6.377C-44.039,-6.924 -49.288,-20.769 -57.527,-30.404C-59.31,-32.397 -56.361,-33.88 -54.542,-33.432C-44.354,-31.12 -36.661,-22.534 -31.187,-13.351C-29.816,-22.306 -28.219,-31.547 -23.63,-38.92C-22.01,-41.5 -15.129,-40.155 -14.871,-37.388C-13.995,-29.148 -12.496,-20.537 -10.034,-12.573C-5.63,-20.962 0.541,-27.655 8.273,-34.493C10.079,-36.054 16.26,-34.186 14.641,-31.37C9.452,-22.08 5.272,-10.082 4.803,1.371C7.351,1.404 9.993,1.586 12.663,1.886C18.38,2.565 24.971,3.684 29.216,7.794C32.713,11.017 26.775,12.577 24.38,10.263C20.883,7.04 14.509,6.812 10.14,6.573C9.001,6.496 7.228,6.511 4.835,6.616C4.976,8.414 5.199,10.307 5.549,11.996C6.345,15.762 -2.21,14.82 -2.801,11.895C-3.111,10.377 -3.321,8.769 -3.464,7.211C-12.183,8.029 -23.276,9.538 -33.647,11.813C-33.535,15.213 -33.67,18.553 -34.123,21.793" style="fill:rgb(237,25,58);fill-rule:nonzero;"/>
            </g>
        </g>
        <g transform="matrix(4.166667,0,0,4.166667,0,0)">
            <g transform="matrix(1,0,0,1,200.52605,275.116691)">
                <path d="M0,-8.558L0.282,-9.594L-0.773,-10.493L-0.491,-11.529L-0.543,-13.483C-0.552,-13.826 -0.66,-13.995 -0.867,-13.989L-0.582,-14.923C-1.314,-16.551 -1.691,-17.843 -1.717,-18.804L-1.822,-22.713L-0.844,-24.694C-1.334,-25.023 -1.682,-25.187 -1.888,-25.182L-0.91,-27.162L-0.924,-27.677C-1.984,-28.745 -2.596,-29.861 -2.763,-31.024L-2.06,-31.558C-2.404,-34.155 -2.678,-35.452 -2.882,-35.447L-2.6,-36.381L-2.613,-36.894C-2.623,-37.237 -2.73,-37.406 -2.935,-37.4C-2.944,-37.743 -2.848,-37.918 -2.641,-37.924L-4.241,-47.659L-2.903,-47.694L-2.928,-48.62C-2.946,-49.304 -3.402,-49.636 -4.293,-49.612L-4.307,-50.127L-3.625,-51.586C-3.642,-52.204 -4.028,-52.502 -4.781,-52.482L-3.42,-55.503L-3.434,-56.017C-4.4,-56.127 -4.892,-56.596 -4.914,-57.418C-4.571,-57.427 -4.008,-58.266 -3.231,-59.934L-3.849,-59.917L-4.556,-59.383L-4.569,-59.898L-4.284,-60.832C-4.775,-61.161 -5.122,-61.324 -5.326,-61.318L-5.339,-61.832C-5.356,-62.45 -5.022,-62.767 -4.336,-62.786L-4.364,-63.815L-5.085,-63.795L-5.688,-63.264L-5.702,-63.779C-5.629,-66.113 -5.33,-67.733 -4.804,-68.64L-5.536,-69.136C-5.544,-69.476 -5.449,-69.652 -5.242,-69.658L-5.616,-72.118L-5.333,-73.052C-6.027,-73.375 -6.397,-74.361 -6.441,-76.006L-6.452,-76.418L-5.773,-77.98L-5.784,-78.392C-6.472,-78.374 -6.833,-79.048 -6.87,-80.422C-6.185,-80.44 -5.852,-80.928 -5.877,-81.889C-6.119,-83.184 -6.618,-83.824 -7.371,-83.804L-7.385,-84.319C-6.429,-84.481 -5.96,-84.974 -5.982,-85.797L-7.065,-87.724C-6.622,-89.038 -6.055,-89.707 -5.37,-89.725L-5.805,-90.639L-6.411,-90.211L-6.822,-90.201L-6.937,-94.519C-6.947,-94.862 -7.055,-95.032 -7.262,-95.027L-6.607,-97.513C-6.781,-98.812 -7.173,-99.454 -7.791,-99.438L-7.871,-102.421C-7.118,-102.441 -6.743,-102.587 -6.75,-102.861C-7.044,-103.539 -7.193,-104.049 -7.203,-104.393C-6.349,-105.72 -5.439,-106.397 -4.479,-106.423L-4.504,-107.348C-5.396,-107.324 -5.859,-107.963 -5.894,-109.266L-6.305,-109.255C-6.511,-109.25 -6.607,-109.075 -6.598,-108.733L-8.374,-109.714L-8.656,-108.678C-9.147,-109.006 -9.529,-109.169 -9.801,-109.162L-9.815,-109.676L-9.094,-109.695L-9.119,-110.621L-10.15,-110.593C-10.764,-110.577 -11.092,-109.914 -11.125,-108.612L-11.536,-108.601C-11.58,-110.246 -12.048,-111.056 -12.939,-111.032L-13.325,-110.096C-13.807,-110.082 -14.639,-110.369 -15.819,-110.955L-17.554,-110.394L-18.288,-110.889C-18.553,-110.537 -19.13,-110.352 -20.022,-110.328L-20.036,-110.842L-21.064,-110.814C-21.271,-110.809 -21.369,-110.635 -21.36,-110.292L-22.092,-110.787L-23.533,-110.748C-23.739,-110.743 -23.838,-110.569 -23.829,-110.226C-24.104,-110.219 -24.244,-110.385 -24.253,-110.729C-26.105,-110.679 -27.012,-110.002 -26.977,-108.701C-27.184,-108.695 -27.292,-108.862 -27.301,-109.206C-27.977,-108.844 -29.274,-108.639 -31.194,-108.588L-31.208,-109.101L-33.663,-108.521L-33.97,-108.513C-33.979,-108.856 -34.096,-109.333 -34.319,-109.945C-35.075,-109.924 -36.021,-109.418 -37.16,-108.428L-37.47,-108.419C-37.495,-109.379 -37.748,-109.852 -38.226,-109.84L-38.936,-109.409C-39.776,-110.003 -40.708,-110.287 -41.736,-110.26L-41.722,-109.746L-42.457,-110.24C-42.802,-110.231 -43.132,-109.742 -43.449,-108.773L-44.18,-109.267L-44.887,-108.734C-44.905,-109.42 -46.779,-110.192 -50.508,-111.054C-50.54,-112.219 -53.376,-113.103 -59.02,-113.707C-59.007,-113.227 -59.336,-112.737 -60.009,-112.24C-60.558,-112.225 -61.041,-112.382 -61.461,-112.715L-62.167,-112.182C-63.711,-113.444 -64.792,-114.067 -65.41,-114.05C-73.957,-112.86 -78.708,-112.252 -79.667,-112.227L-80.078,-112.216C-80.285,-112.21 -80.383,-112.036 -80.374,-111.694L-81.108,-112.188C-93.67,-112.469 -102.08,-112.552 -106.33,-112.438L-106.316,-111.924C-106.266,-110.073 -106.951,-104.839 -108.365,-96.224L-107.967,-92.839C-107.963,-87.622 -108.132,-85.012 -108.475,-85.002C-107.949,-83.231 -107.662,-81.455 -107.614,-79.673C-107.818,-79.668 -107.917,-79.494 -107.907,-79.151C-107.701,-79.157 -107.596,-78.987 -107.586,-78.646C-107.926,-78.637 -108.256,-78.146 -108.576,-77.177C-108.094,-77.19 -107.846,-76.852 -107.827,-76.168L-107.224,-76.699L-107.196,-75.671L-108.161,-73.277C-107.682,-73.289 -107.174,-72.308 -106.642,-70.334C-107.283,-68.669 -107.596,-67.529 -107.579,-66.912L-106.948,-66.414C-107.146,-66.065 -107.275,-63.282 -107.342,-58.067C-106.37,-47.389 -105.848,-40.712 -105.776,-38.038C-105.765,-37.626 -105.857,-36.012 -106.057,-33.193C-105.703,-30.251 -105.424,-28.784 -105.217,-28.789C-105.336,-25.493 -105.373,-23.021 -105.329,-21.376L-105.014,-9.65L-105.948,20.737L-105.638,20.729L-105.923,21.663L-105.91,22.177L-105.189,22.158L-105.164,23.084L-105.547,24.122C-105.205,24.113 -104.708,24.753 -104.057,26.039L-104.004,27.992C-104.689,28.011 -105.023,28.329 -105.007,28.946C-104.597,28.935 -104.38,29.273 -104.362,29.959C-104.772,29.969 -104.971,30.283 -104.955,30.9L-104.62,31.92L-104.902,32.854L-104.567,33.874L-106.092,42.252L-105.358,42.748L-106.015,45.132C-105.534,45.12 -105.285,45.457 -105.267,46.141L-105.949,47.601C-105.467,47.588 -105.219,47.924 -105.201,48.609L-105.148,50.565L-105.869,50.584L-105.844,51.508L-104.813,51.481L-104.771,53.024L-105.019,55.398C-104.812,55.392 -104.704,55.562 -104.694,55.904C-105.176,55.918 -105.406,56.267 -105.387,56.952C-104.906,56.939 -104.659,57.241 -104.642,57.858L-104.551,61.253C-104.531,62.007 -104.617,62.661 -104.809,63.214C-104.583,63.896 -104.466,64.407 -104.457,64.75C-104.6,67.156 -104.8,68.602 -105.062,69.088C-104.765,69.904 -104.33,72.018 -103.76,75.435L-104.143,76.474L-103.359,78.923L-104.065,79.355C-103.799,81.679 -103.525,82.839 -103.254,82.832C-103.443,83.385 -103.639,85.004 -103.842,87.685C-103.833,88.028 -103.692,88.195 -103.417,88.188C-103.552,93.405 -103.712,96.361 -103.901,97.052C-103.677,97.664 -103.561,98.141 -103.552,98.484L-103.837,99.418C-103.614,100.029 -103.493,100.678 -103.475,101.364L-103.718,103.842C-101.733,103.582 -100.578,103.242 -100.247,102.822C-100.04,102.817 -99.933,102.95 -99.926,103.224C-99.447,103.212 -98.496,102.877 -97.071,102.221L-96.739,103.139L-96.03,102.709C-95.48,102.694 -95.031,102.818 -94.681,103.084C-94.21,102.796 -93.732,102.647 -93.25,102.634L-93.226,103.56C-91.383,103.304 -90.464,102.97 -90.475,102.56L-89.743,102.951L-89.333,102.94L-87.595,102.483C-87.511,103.098 -87.26,103.4 -86.85,103.389L-86.543,103.381L-84.808,102.818C-84.722,103.502 -84.471,103.839 -84.06,103.828L-82.312,103.781C-82.29,104.604 -81.831,105.07 -80.936,105.185L-80.55,104.249C-80.343,104.243 -80.236,104.378 -80.229,104.652L-78.081,104.182C-76.229,104.132 -74.811,104.573 -73.825,105.509C-73.838,105.029 -73.269,104.532 -72.115,104.022L-71.384,104.415C-69.877,104.375 -68.273,104.023 -66.574,103.359C-66.49,103.975 -66.242,104.277 -65.829,104.266C-65.426,103.98 -64.951,103.83 -64.402,103.815L-64.391,104.227C-63.654,103.59 -62.974,103.263 -62.357,103.246C-61.87,103.576 -61.522,103.738 -61.315,103.733L-61.305,104.144L-61.922,104.161L-61.894,105.189C-58.914,103.805 -57.08,103.105 -56.392,103.086L-56.367,104.012C-53.915,103.328 -51.219,102.775 -48.281,102.354L-48.268,102.868L-45.93,101.775L-45.916,102.291L-45.209,101.756L-44.475,102.252C-44.073,101.897 -43.6,101.713 -43.05,101.698L-43.433,102.738L-43.419,103.252C-42.941,103.239 -42.712,102.719 -42.74,101.69L-42.006,102.186L-41.699,102.178L-40.992,101.643L-40.964,102.672L-39.54,102.12L-37.057,102.567C-37.008,101.879 -36.775,101.53 -36.364,101.519L-36.054,101.51L-36.026,102.54L-34.588,102.501C-34.18,102.421 -33.982,102.072 -33.999,101.455C-32.474,102.1 -31.502,102.418 -31.092,102.407L-31.119,101.378L-30.399,101.359L-30.371,102.388L-29.754,102.371L-29.782,101.342L-25.551,101.744L-23.802,101.697C-23.784,102.381 -23.639,102.721 -23.364,102.714L-22.04,102.164C-20.848,103.093 -20.014,103.551 -19.533,103.538C-19.481,102.919 -19.25,102.604 -18.837,102.593C-18.351,102.853 -18.005,102.983 -17.798,102.977C-17.747,102.358 -17.516,102.043 -17.103,102.032L-13.902,102.46C-13.915,101.981 -13.586,101.456 -12.913,100.89C-12.83,101.573 -12.578,101.91 -12.167,101.9C-12.118,101.211 -11.885,100.862 -11.475,100.851L-11.165,100.843C-9.52,100.798 -8.678,101.427 -8.644,102.732C-8.439,102.726 -8.34,102.585 -8.347,102.311C-7.587,102.564 -7.201,102.862 -7.191,103.207C-5.281,102.811 -3.681,102.29 -2.396,101.637L-0.633,102.104L0.755,100.112L0.479,89.826C0.325,84.067 0.06,78.035 -0.316,71.733C-0.172,69.396 -0.148,66.444 -0.244,62.88L-0.736,56.1C-0.358,54.855 -0.083,52.377 0.093,48.666L-0.342,47.753C-0.083,47.196 0.036,46.543 0.016,45.787L-1.145,40.878C-0.954,40.255 -0.864,39.773 -0.873,39.428L-1.183,39.437L-0.9,38.4L-1.274,36.044C-0.865,35.964 -0.668,35.615 -0.685,34.998C-1.02,32.743 -1.393,31.621 -1.803,31.632C-1.702,30.326 -1.377,29.664 -0.828,29.65L-0.855,28.622L-1.473,28.638L-1.187,27.704C-1.197,27.362 -1.305,27.193 -1.511,27.199C-1.323,26.508 -1.232,26.025 -1.24,25.749C-1.474,24.727 -1.73,24.22 -2.002,24.227C-1.778,22.438 -1.335,20.984 -0.68,19.868L-1.156,17.41C-0.202,17.179 0.267,16.688 0.246,15.932L0.219,14.904L-0.092,14.912C-0.561,15.269 -0.934,15.449 -1.209,15.457L-1.223,14.942C-0.994,13.222 -0.885,12.224 -0.892,11.949C-1.167,11.956 -1.306,11.823 -1.313,11.548C-0.359,11.317 0.108,10.79 0.086,9.966L0.061,9.041L-0.659,9.06L0.419,7.076L0.405,6.562L-0.315,6.582L-0.34,5.655L0.381,5.636C-0.409,4.422 -0.81,3.439 -0.831,2.684L-0.124,2.15L-0.458,1.233L-0.473,0.718L0.209,-0.741L0.196,-1.255L-0.525,-1.236L-0.539,-1.749L0.144,-3.208L0.129,-3.724L-0.577,-3.189L-0.988,-3.178L-1.001,-3.694L-0.281,-3.713L-0.616,-4.63C-0.629,-5.109 -0.3,-5.632 0.374,-6.2L0,-8.558Z" style="fill:rgb(10,10,10);fill-rule:nonzero;"/>
            </g>
        </g>
        <g transform="matrix(4.166667,0,0,4.166667,0,0)">
            <g transform="matrix(1,0,0,1,277.02015,268.120291)">
                <path d="M0,-66.855C0.411,-66.866 0.769,-67.493 1.082,-68.737L0.964,-69.248L0.347,-69.231L0.228,-69.846C0.205,-70.668 0.32,-71.459 0.574,-72.222L-0.354,-76.21C0.123,-76.292 0.354,-76.71 0.333,-77.464L-0.277,-80.947C-0.126,-83.011 -0.076,-85.001 -0.127,-86.921C-0.149,-87.745 -0.309,-88.494 -0.599,-89.173C-0.413,-89.863 -0.331,-90.655 -0.355,-91.547L-0.829,-93.902C-0.351,-93.915 -0.12,-94.333 -0.142,-95.156C-0.162,-95.909 -0.652,-96.238 -1.61,-96.145L-1.643,-97.379C-1.654,-97.791 -1.557,-97.999 -1.35,-98.004L-1.793,-99.125L-1.871,-102.005L-1.303,-103.872C-1.598,-104.619 -1.75,-105.199 -1.761,-105.611C-1.489,-105.618 -1.356,-105.827 -1.367,-106.238C-1.642,-106.23 -1.782,-106.398 -1.791,-106.742C-1.314,-106.821 -1.083,-107.24 -1.104,-107.996C-1.585,-107.983 -1.834,-108.352 -1.854,-109.107L-1.888,-110.342C-1.409,-110.355 -1.224,-111.147 -1.334,-112.724L-2.359,-112.593L-2.542,-115.573L-2.315,-118.564L-3.033,-118.441L-3.113,-121.424L-2.937,-122.562C-3.347,-122.551 -3.6,-122.919 -3.688,-123.674L-3.751,-126.039C-3.337,-128.452 -3.024,-129.661 -2.817,-129.667C-3.044,-130.415 -3.163,-130.995 -3.174,-131.407L-3.047,-134.395C-3.254,-134.39 -3.362,-134.557 -3.371,-134.9C-2.895,-134.981 -2.611,-135.983 -2.524,-137.908C-3.75,-140.071 -5.329,-141.332 -7.259,-141.692C-8.505,-142.207 -9.173,-142.738 -9.255,-143.285L-9.856,-142.651L-10.27,-142.64L-11.328,-143.745L-11.311,-143.128C-11.801,-143.525 -12.183,-143.687 -12.456,-143.611L-13.16,-142.975L-14.628,-144.067C-15.306,-143.638 -15.637,-143.217 -15.626,-142.805L-17.108,-144.413C-17.911,-143.568 -18.62,-143.137 -19.234,-143.121C-19.715,-143.108 -20.445,-143.431 -21.423,-144.092C-21.698,-144.084 -21.829,-143.874 -21.817,-143.464L-23.683,-143.928L-28.615,-143.59C-28.819,-143.584 -28.917,-143.375 -28.906,-142.965C-29.889,-143.692 -30.754,-144.012 -31.505,-143.923C-31.553,-143.167 -31.781,-142.749 -32.193,-142.669C-33.437,-142.979 -34.159,-143.132 -34.366,-143.127L-35.07,-142.49C-35.56,-142.82 -35.94,-142.981 -36.214,-142.974C-36.421,-142.968 -36.758,-142.754 -37.226,-142.329L-42.599,-143.111C-43.078,-143.029 -43.923,-142.562 -45.135,-141.705C-45.555,-142.036 -46.041,-142.196 -46.59,-142.181C-47.139,-142.167 -47.612,-141.947 -48.012,-141.525L-49.48,-142.515L-50.902,-141.859C-51.874,-142.175 -52.699,-142.291 -53.382,-142.205C-53.367,-141.655 -53.697,-141.064 -54.363,-140.429C-54.511,-140.768 -55.371,-140.88 -56.946,-140.772L-56.929,-140.154C-57.567,-140.891 -58.059,-141.256 -58.401,-141.247C-59.359,-141.152 -61.474,-140.786 -64.752,-140.15L-64.902,-141.896L-65.623,-141.876L-65.473,-140.13L-66.193,-140.111L-66.354,-142.371L-66.768,-142.359C-67.246,-142.347 -67.437,-141.758 -67.338,-140.595L-69.494,-140.435C-69.701,-140.429 -69.806,-140.597 -69.815,-140.94L-70.519,-140.304L-71.681,-141.405C-72.026,-141.396 -72.384,-140.768 -72.762,-139.522L-74.527,-139.991C-74.802,-139.984 -74.896,-139.774 -74.817,-139.366L-75.658,-139.961L-75.965,-139.953L-76.566,-139.319C-76.725,-140.068 -77.007,-140.439 -77.42,-140.428L-78.035,-140.308C-79.796,-139.438 -80.744,-138.964 -80.878,-138.894L-82.419,-138.853L-83.48,-139.956C-84.279,-139.112 -84.988,-138.645 -85.604,-138.561L-86.014,-138.549L-86.749,-139.045C-87.323,-137.45 -87.67,-135.074 -87.792,-131.915L-86.373,-117.338C-86.623,-116.507 -86.745,-115.886 -86.733,-115.476L-86.583,-113.73C-87.058,-113.579 -87.289,-113.16 -87.271,-112.477C-86.791,-112.556 -86.372,-111.024 -86.016,-107.878L-86.323,-107.87C-86.312,-107.459 -86.204,-107.289 -86.002,-107.364L-86.125,-104.376L-86.032,-100.879C-85.938,-99.919 -85.781,-99.136 -85.558,-98.524C-85.733,-97.353 -85.956,-96.729 -86.229,-96.654C-85.832,-94.742 -85.393,-91.049 -84.903,-85.573C-85.044,-83.236 -85.252,-82.064 -85.527,-82.057C-85.516,-81.645 -85.41,-81.442 -85.203,-81.448C-85.166,-77.538 -85.41,-75.164 -85.937,-74.327L-85.759,-71.45L-87.195,-71.308L-87.162,-70.074C-85.727,-70.25 -84.981,-69.343 -84.928,-67.354C-85.335,-67.206 -85.531,-66.788 -85.512,-66.105L-85.499,-65.589C-85.477,-64.767 -85.223,-64.361 -84.745,-64.374C-84.838,-62.793 -85.112,-61.414 -85.559,-60.235L-85.071,-57.367C-85.313,-56.126 -85.535,-55.502 -85.742,-55.496L-85.254,-52.628C-85.249,-52.422 -85.333,-49.263 -85.514,-43.152L-85.07,-42.031L-85.451,-40.787L-84.469,-34.945C-85.088,-32.459 -85.384,-30.7 -85.356,-29.673L-84.746,-26.086C-85.221,-25.935 -85.453,-25.553 -85.436,-24.936C-85.141,-24.188 -84.984,-23.404 -84.962,-22.582C-85.437,-22.43 -85.668,-22.013 -85.65,-21.328L-85.159,-18.459C-85.205,-15.095 -85.167,-12.351 -85.042,-10.228L-84.734,-10.236C-84.921,-9.613 -85.06,-7.037 -85.145,-2.506L-84.637,0.98L-85.485,3.987C-85.474,4.399 -85.366,4.568 -85.161,4.493L-85.438,5.736L-85.208,10.464L-84.72,13.333C-85.301,14.584 -85.766,15.213 -86.108,15.223L-86.078,16.355C-85.322,16.335 -84.937,16.701 -84.917,17.456C-85.395,17.469 -85.621,18.092 -85.587,19.327L-85.144,20.447L-85.667,23.96L-84.491,33.295C-84.585,34.876 -84.941,35.71 -85.556,35.793L-85.422,36.923L-85.115,36.915C-84.645,36.49 -84.308,36.275 -84.104,36.27L-84.088,36.887L-85.326,40.521L-85.312,41.037L-84.592,41.017L-84.871,42.157L-84.855,42.774L-84.134,42.754C-83.95,52.149 -84.186,57.473 -84.837,58.726L-84.35,61.596C-84.339,62.006 -84.426,62.591 -84.61,63.353C-84.264,66.019 -83.942,67.76 -83.648,68.575C-83.9,69.337 -83.982,70.128 -83.892,70.949L-81.245,73.761C-80.58,72.918 -79.871,72.453 -79.12,72.365C-78.641,72.352 -78.155,72.509 -77.667,72.84C-76.866,71.996 -75.953,71.523 -74.924,71.43L-67.505,75.656L-66.905,75.022L-64.906,76.615C-64.429,76.534 -64.233,76.116 -64.322,75.365L-62.149,75.821L-62.426,76.96L-61.688,77.558L-61.281,77.444L-59.319,73.789C-58.979,73.78 -58.25,74.103 -57.133,74.76C-56.733,74.337 -56.26,74.119 -55.708,74.104C-55.437,74.097 -54.462,74.619 -52.785,75.673L-51.366,74.914C-47.598,74.674 -44.94,75.256 -43.393,76.655L-42.398,75.395L-39.094,75.717C-39.109,75.167 -38.071,74.316 -35.974,73.163C-35.963,73.574 -35.854,73.777 -35.647,73.771C-35.409,72.531 -34.706,71.859 -33.541,71.76C-32.582,71.734 -31.099,72.037 -29.09,72.669L-28.489,72.037C-27.091,73.027 -25.635,73.674 -24.116,73.978L-24.13,73.462L-23.396,73.958L-22.675,73.939C-22.402,73.862 -22.272,73.653 -22.281,73.311C-21.312,73.627 -20.474,74.153 -19.768,74.889L-18.36,73.616C-17.873,73.946 -17.49,74.108 -17.215,74.101L-16.511,73.465C-16.023,73.793 -15.676,73.957 -15.47,73.951C-14.728,73.519 -14.361,73.098 -14.372,72.686L-13.637,73.181L-13.33,73.172L-11.601,72.406C-11.513,73.158 -10.737,73.892 -9.275,74.608L-8.675,73.974C-8.196,73.961 -6.605,74.434 -3.902,75.39L-3.919,74.773L-1.423,75.838C-0.886,75.343 -0.515,75.094 -0.308,75.088L0.426,75.687C1.659,75.584 2.608,72.54 3.27,66.552C2.975,65.805 2.823,65.227 2.812,64.815C3.291,64.802 3.522,64.417 3.502,63.664C3.021,63.677 2.771,63.306 2.751,62.553L2.995,60.179C2.984,59.767 2.878,59.564 2.671,59.57C2.715,56.136 2.921,53.558 3.285,51.834L2.948,50.71L3.222,49.467L2.734,46.599C3.349,43.974 3.644,42.183 3.618,41.223C3.244,40.065 2.954,39.491 2.75,39.497L2.98,36.609L2.476,33.122C2.664,32.433 2.706,31.436 2.603,30.134L1.868,29.639L2.689,21.898C2.678,21.486 2.569,21.284 2.365,21.289C2.457,14.563 2.413,9.075 2.231,4.824L2.951,4.805L2.184,3.076C2.369,2.248 2.457,1.663 2.447,1.319L2.034,1.33L2.414,0.085C2.224,-1.83 1.958,-2.784 1.616,-2.775C1.81,-8.338 1.84,-12.284 1.709,-14.614C1.462,-16.116 1.291,-17.45 1.191,-18.615L1.895,-19.251C1.884,-19.662 1.74,-19.865 1.465,-19.857L1.695,-22.848L1.648,-24.597C1.637,-25.007 1.494,-25.175 1.221,-25.1L1.602,-26.345L1.435,-28.708C1.413,-29.53 1.253,-30.281 0.963,-30.959C1.071,-34.529 1.333,-36.321 1.744,-36.332L1.357,-39.306C1.35,-39.58 1.383,-40.749 1.467,-42.81L1.129,-43.933L1.603,-49.297L0.472,-49.267L0.198,-55.64C0.881,-55.727 1.212,-56.148 1.192,-56.902L1.176,-57.52C0.491,-57.501 0.138,-57.869 0.118,-58.623C-0.01,-60.746 0.34,-63.123 1.162,-65.754C0.406,-65.734 0.021,-66.099 0,-66.855" style="fill:rgb(10,10,10);fill-rule:nonzero;"/>
            </g>
        </g>
        <g transform="matrix(4.166667,0,0,4.166667,0,0)">
            <g transform="matrix(1,0,0,1,408.00555,345.648791)">
                <path d="M0,-191.031L-0.276,-201.317C-0.333,-203.442 -1.608,-204.95 -4.104,-205.845L-4.824,-205.826C-4.809,-205.277 -5.268,-204.51 -6.201,-203.525C-7.3,-203.496 -8.3,-203.639 -9.198,-203.959L-12.167,-203.365C-13.401,-203.332 -15.88,-203.642 -19.604,-204.298C-19.593,-203.885 -19.826,-203.674 -20.308,-203.661L-19.557,-202.549L-23.247,-201.936C-23.639,-203.777 -24.417,-204.682 -25.583,-204.651L-26.304,-204.632L-26.29,-204.118L-24.698,-202.411L-25.522,-202.389L-28.449,-204.06L-29.272,-204.038L-29.256,-203.421L-28.402,-202.312L-33.633,-201.657L-34.354,-201.638C-34.375,-202.46 -34.638,-203.207 -35.135,-203.881L-36.66,-203.222L-35.808,-202.113L-36.629,-202.091C-37.11,-202.078 -37.355,-202.277 -37.366,-202.689C-41.837,-202.981 -44.078,-203.469 -44.097,-204.155L-45.521,-203.602L-44.773,-202.49L-48.457,-201.774C-48.664,-201.768 -49.918,-202.488 -52.221,-203.936L-52.19,-202.805L-51.439,-201.694C-55.35,-201.589 -57.292,-201.158 -57.271,-200.406L-60.991,-200.923L-62.519,-200.264L-69.179,-202.967C-70,-202.945 -70.503,-202.553 -70.69,-201.795C-71.171,-201.782 -71.894,-201.932 -72.863,-202.251L-74.394,-201.696L-74.407,-202.209C-74.886,-202.197 -75.602,-202.006 -76.552,-201.637C-77.102,-201.623 -77.859,-201.772 -78.828,-202.091C-78.808,-201.336 -79.279,-200.947 -80.239,-200.921L-80.27,-202.052L-81.093,-202.03L-82.518,-201.477L-82.531,-201.991C-82.877,-201.982 -84.86,-201.758 -88.483,-201.318C-90.296,-202.365 -91.545,-202.881 -92.23,-202.863C-98.128,-202.705 -101.055,-201.871 -101.015,-200.364C-101.496,-200.35 -101.741,-200.55 -101.752,-200.961L-103.983,-199.77C-105.507,-200.277 -106.275,-200.804 -106.29,-201.354C-107.114,-201.332 -107.585,-200.941 -107.701,-200.184C-108.182,-200.171 -108.94,-200.356 -109.979,-200.74L-111.404,-200.085C-112.236,-200.475 -113.237,-200.653 -114.403,-200.622C-115.224,-200.6 -115.695,-200.209 -115.811,-199.452C-118.917,-200.122 -120.918,-200.447 -121.807,-200.423C-121.796,-200.011 -122.022,-199.422 -122.48,-198.656C-126.204,-199.309 -128.441,-199.628 -129.197,-199.607L-132.883,-198.994C-132.893,-199.337 -133.149,-199.878 -133.648,-200.62L-134.369,-200.6C-135.603,-200.567 -137.771,-198.21 -140.87,-193.53C-139.458,-192.127 -138.415,-190.266 -137.735,-187.953C-138.719,-186.281 -139.202,-185.1 -139.183,-184.415L-138.362,-184.437L-138.318,-182.792L-136.83,-181.081L-136.722,-177.071L-137.413,-175.92C-136.453,-175.946 -135.961,-175.581 -135.941,-174.828L-138.103,-174.77L-138.072,-173.637L-136.631,-173.676L-136.601,-172.545L-138.042,-172.506L-138.009,-171.272L-136.568,-171.31L-136.554,-170.797C-136.534,-170.041 -137.28,-169.645 -138.786,-169.605L-138.739,-167.857L-136.507,-169.048L-137.137,-165.634C-136.638,-164.892 -136.38,-164.317 -136.369,-163.906C-138.834,-163.702 -140.053,-163.087 -140.025,-162.058L-140.012,-161.544C-139.049,-161.57 -138.025,-160.43 -136.935,-158.127C-136.915,-157.371 -137.418,-156.981 -138.446,-156.953L-137.548,-154.096L-139.09,-154.054L-139.076,-153.541L-138.325,-152.429C-139.149,-152.407 -139.617,-152.016 -139.736,-151.258L-139.719,-150.641L-138.231,-148.931L-138.17,-146.669L-140.362,-147.742L-141.08,-147.723L-141.05,-146.592C-139.815,-146.625 -139.077,-145.888 -138.83,-144.386L-140.271,-144.347L-138.046,-142.04L-138.002,-140.395C-139.443,-140.356 -140.154,-139.959 -140.133,-139.206L-138.692,-139.244L-138.676,-138.627L-140.834,-138.569C-140.166,-136.665 -139.422,-135.726 -138.599,-135.748C-138.589,-135.404 -138.824,-135.226 -139.305,-135.213L-138.551,-133.998L-138.414,-128.857C-139.97,-128.058 -140.956,-127.655 -141.366,-127.644L-141.352,-127.13C-139.859,-125.249 -138.841,-124.316 -138.292,-124.331C-138.281,-123.919 -138.504,-123.329 -138.966,-122.563L-138.185,-120.319C-138.164,-119.564 -138.632,-119.175 -139.595,-119.149C-139.584,-118.739 -139.326,-118.16 -138.828,-117.42L-139.518,-116.27L-138.737,-114.026C-138.716,-113.271 -139.444,-112.291 -140.921,-111.086L-140.875,-109.337C-139.319,-107.663 -138.531,-106.346 -138.505,-105.386C-140.492,-105.333 -141.478,-104.929 -141.457,-104.175L-141.41,-102.427L-140.659,-101.315L-142.087,-100.762C-140.045,-98.895 -138.545,-97.974 -137.585,-98L-137.569,-97.383L-138.963,-95.596L-140.521,-96.172L-141.946,-95.516C-141.937,-95.172 -141.69,-95.009 -141.211,-95.021C-141.201,-94.61 -141.434,-94.398 -141.916,-94.385C-139.394,-92.462 -138.123,-91.157 -138.105,-90.474L-138.091,-89.959L-138.812,-89.939L-138.842,-91.07L-139.56,-91.051C-139.536,-90.159 -139.79,-89.399 -140.323,-88.767C-140.302,-88.012 -139.536,-87.656 -138.03,-87.697L-138.014,-87.079L-140.276,-87.018L-140.246,-85.887C-139.696,-85.902 -138.937,-85.716 -137.967,-85.331L-138.657,-84.18L-138.596,-81.917L-137.108,-80.207L-138.549,-80.169L-138.536,-79.655L-137.782,-78.44C-138.26,-78.427 -138.498,-78.247 -138.489,-77.906L-138.472,-77.289L-137.674,-74.427C-138.153,-74.415 -138.39,-74.237 -138.381,-73.894L-136.879,-71.671C-136.868,-71.259 -137.341,-71.041 -138.304,-71.015L-138.273,-69.884L-136.832,-69.923C-136.821,-69.511 -137.055,-69.299 -137.536,-69.286C-137.527,-68.942 -137.28,-68.778 -136.802,-68.79C-136.758,-67.145 -136.941,-65.047 -137.354,-62.498L-136.57,-60.151L-137.26,-59L-136.509,-57.888L-137.23,-57.869C-136.79,-56.783 -136.247,-54.498 -135.604,-51.016C-136.064,-50.317 -136.286,-49.557 -136.264,-48.735L-136.984,-48.716L-138.439,-49.294C-138.428,-48.883 -138.697,-48.67 -139.247,-48.655C-139.215,-47.489 -137.965,-46.94 -135.496,-47.006L-136.893,-45.321C-136.871,-44.499 -136.104,-44.107 -134.598,-44.147L-136.095,-42.461L-136.065,-41.33C-136.043,-40.506 -135.518,-40.109 -134.49,-40.137C-134.481,-39.793 -134.751,-39.615 -135.297,-39.601C-135.287,-39.189 -134.999,-38.613 -134.43,-37.873C-134.958,-37.104 -135.215,-36.515 -135.204,-36.103C-135.682,-36.09 -135.93,-36.29 -135.941,-36.701L-137.365,-36.045C-136.357,-34.357 -135.339,-33.457 -134.308,-33.349L-134.261,-31.601C-134.25,-31.189 -133.996,-30.612 -133.494,-29.87C-134.315,-29.848 -134.821,-29.458 -135.005,-28.698L-134.991,-28.184L-133.45,-28.225L-135.604,-24.153C-134.017,-21.175 -133.209,-19.277 -133.187,-18.455C-133.669,-18.442 -134.417,-18.215 -135.433,-17.777L-133.831,-15.554C-134.31,-12.935 -134.526,-10.837 -134.483,-9.259L-133.632,-8.15C-135.186,-7.354 -136.41,-6.943 -137.302,-6.919L-137.255,-5.171C-135.335,-5.222 -134.366,-4.871 -134.346,-4.117L-134.298,-2.369C-135.74,-2.33 -136.45,-1.934 -136.43,-1.178L-133.431,-0.642L-133.417,-0.127C-133.396,0.626 -133.9,1.018 -134.928,1.045L-133.279,5.014C-134.206,8.813 -134.662,10.953 -134.649,11.433L-134.589,13.695C-134.568,14.45 -134.044,14.814 -133.017,14.786L-124.169,14.549C-121.428,14.475 -117.97,14.176 -113.799,13.653C-112.896,14.04 -111.659,14.214 -110.079,14.171C-108.228,14.121 -104.535,13.644 -99.003,12.74C-98.994,13.083 -98.75,13.249 -98.269,13.237L-96.841,12.682C-96.294,12.668 -95.537,12.819 -94.565,13.137C-92.94,12.337 -91.477,11.922 -90.174,11.887L-89.454,11.868C-88.426,11.841 -87.899,12.202 -87.879,12.958C-87.675,12.952 -85.73,12.522 -82.047,11.669L-79.048,12.205C-79.064,11.589 -78.561,11.198 -77.537,11.032L-76.082,11.509C-76.071,11.92 -76.308,12.132 -76.786,12.144C-76.766,12.899 -76.277,13.264 -75.317,13.239C-74.287,13.211 -73.783,12.819 -73.803,12.064L-75.348,12.106L-75.378,10.975L-70.13,10.834L-66.416,11.25L-65.726,10.098C-64.766,10.073 -64.274,10.436 -64.254,11.192C-63.227,11.164 -62.728,10.6 -62.757,9.504L-61.316,9.466L-59.76,9.938C-59.77,9.594 -56.838,8.933 -50.962,7.952C-50.952,8.365 -50.697,8.94 -50.195,9.681C-49.717,9.669 -48.965,9.477 -47.947,9.107C-46.065,10.153 -44.096,10.651 -42.041,10.596L-41.247,9.441C-38.336,10.529 -35.852,11.046 -33.793,10.991L-32.372,10.337L-32.355,10.952C-31.877,10.939 -31.64,10.728 -31.651,10.317L-27.931,10.834L-26.406,10.177C-24.662,11.296 -21.696,11.8 -17.515,11.687L-12.37,11.55L-10.845,10.891C-10.834,11.301 -10.589,11.502 -10.108,11.489L0.278,11.21C2.108,10.336 3.779,8.749 5.299,6.443L5.07,-2.094L4.319,-3.205C4.797,-3.218 5.034,-3.431 5.022,-3.842L4.808,-11.864L4.057,-12.976L4.777,-12.995C4.75,-14.024 4.238,-15.142 3.245,-16.351L4.669,-17.007C4.653,-17.624 4.162,-17.989 3.198,-18.099C3.188,-18.444 3.412,-19.031 3.872,-19.867L2.386,-21.475L2.262,-26.102C2.744,-26.115 3.457,-26.306 4.41,-26.676C4.399,-27.086 4.151,-27.285 3.673,-27.272L4.363,-28.424L2.875,-30.134L2.798,-33.013C2.781,-33.63 3.25,-34.02 4.208,-34.183C4.177,-35.348 3.66,-36.673 2.66,-38.156L4.057,-39.84L4.01,-41.588L3.259,-42.701C3.737,-42.714 3.974,-42.926 3.963,-43.338L3.933,-44.469C3.916,-45.086 3.425,-45.448 2.461,-45.561C3.378,-47.164 3.829,-48.342 3.809,-49.096C3.792,-49.714 3.3,-50.077 2.337,-50.189L3.027,-51.341L2.276,-52.452C3.236,-52.478 3.708,-52.866 3.687,-53.622L2.936,-54.734C3.415,-54.747 3.651,-54.96 3.64,-55.37L3.61,-56.501L2.122,-58.211C2.105,-58.828 2.573,-59.218 3.532,-59.382L2.014,-62.223L3.411,-63.906L3.395,-64.524L2.644,-65.637C3.122,-65.65 3.358,-65.862 3.348,-66.274C3.326,-67.096 3.063,-67.843 2.566,-68.516L3.256,-69.667L1.004,-73.004C0.985,-73.687 1.456,-74.112 2.412,-74.277L0.926,-75.883C0.908,-76.568 1.379,-76.957 2.337,-77.052C2.315,-77.875 2.052,-78.657 1.553,-79.399L2.244,-80.549C0.698,-81.88 -0.091,-83.197 -0.126,-84.5C-0.152,-85.46 0.826,-86.034 2.812,-86.225L2.796,-86.843L-0.248,-89.026L2.014,-89.087L1.984,-90.218C0.475,-90.177 -0.289,-90.569 -0.311,-91.391L1.186,-93.078L1.169,-93.695C-0.339,-93.655 -1.103,-94.011 -1.123,-94.765L-1.153,-95.898C-1.185,-97.063 -0.473,-98.626 0.985,-100.586L-0.571,-101.059L1.598,-104.617L-0.863,-111.962C-0.453,-111.973 0.275,-112.951 1.322,-114.902L-1.032,-118.236C-0.812,-120.161 -0.081,-121.143 1.153,-121.176L1.137,-121.793C-0.42,-123.535 -1.214,-125.024 -1.247,-126.259L0.278,-126.917L-1.308,-128.521C-1.33,-129.343 -0.348,-129.781 1.642,-129.835C0.367,-131.309 -0.648,-132.037 -1.401,-132.017C-1.418,-132.635 -0.914,-133.025 0.11,-133.191C0.099,-133.601 -0.156,-134.177 -0.658,-134.92L-0.012,-137.715L-0.765,-138.93C0.195,-138.956 0.666,-139.345 0.646,-140.1L0.632,-140.615C0.15,-140.603 -0.084,-140.424 -0.075,-140.081C-0.831,-140.06 -1.604,-140.795 -2.398,-142.284C-0.892,-142.324 -0.146,-142.719 -0.166,-143.475L-0.196,-144.607L-1.785,-146.314L-1.801,-146.931L1.181,-147.01L1.151,-148.142L-1.011,-148.084L-1.072,-150.347C0.37,-150.386 1.08,-150.782 1.06,-151.536L0.999,-153.799L-2,-154.336L-0.536,-157.258L-2.078,-157.217L-2.091,-157.731L-1.301,-158.884C-0.819,-158.897 -0.575,-158.732 -0.566,-158.389L0.861,-158.942C0.839,-159.764 0.107,-160.156 -1.333,-160.118L-1.348,-160.632L0.094,-160.671L0.033,-162.934L-0.721,-164.149C-0.242,-164.162 0.224,-164.723 0.676,-165.833C0.65,-166.793 0.102,-169.281 -0.966,-173.302C-0.006,-173.328 0.465,-173.717 0.444,-174.472C0.378,-176.941 -0.175,-179.602 -1.212,-182.456C-0.754,-183.223 -0.526,-183.778 -0.536,-184.122L-1.289,-185.336L0.108,-187.021L0.044,-189.386L-0.707,-190.498C-0.228,-190.51 0.009,-190.687 0,-191.031" style="fill:rgb(10,10,10);fill-rule:nonzero;"/>
            </g>
        </g>
        <g transform="matrix(4.166667,0,0,4.166667,0,0)">
            <g transform="matrix(1,0,0,1,548.04995,243.122691)">
                <path d="M0,59.771C-1.506,57.274 -2.258,54.927 -2.246,52.729C-2.266,51.975 -1.695,51.583 -0.528,51.552L-0.544,50.935C-0.497,50.178 -1.089,49.817 -2.323,49.85L-2.293,43.364L-0.442,43.314L-1.61,38.097L-1.026,36.846C-1.427,34.798 -1.626,33.638 -1.634,33.363L-0.993,30.361C-1.749,30.381 -2.345,28.648 -2.782,25.159C-2.389,24.395 -2.17,23.6 -2.125,22.774L-2.188,20.409L-2.735,19.189C-2.323,19.247 -2.121,19.07 -2.132,18.658L-2.179,16.909L-2.669,13.938C-2.327,13.929 -2.16,13.754 -2.169,13.41L-3.319,12.72C-3.283,11.553 -3.08,10.21 -2.709,8.69C-2.704,6.358 -3.082,2.421 -3.848,-3.117C-3.163,-3.135 -2.743,-4.105 -2.587,-6.032L-3.238,-7.25L-2.618,-7.163C-2.629,-7.575 -2.819,-8.187 -3.184,-9.001L-1.997,-10.782L-3.231,-10.749C-3.207,-15.004 -3.56,-20.482 -4.287,-27.189C-3.947,-27.199 -3.746,-27.409 -3.689,-27.823L-5.435,-35.392L-4.32,-36.04C-4.288,-37.344 -4.449,-38.3 -4.808,-38.908L-4.288,-42.524L-4.775,-45.395C-4.436,-45.403 -4.073,-45.994 -3.691,-47.173C-3.652,-48.133 -4.214,-49.901 -5.379,-52.48L-4.736,-55.378L-5.386,-56.596L-4.799,-57.744C-5.53,-59.438 -6.116,-61.997 -6.548,-65.417C-6.137,-65.427 -5.935,-65.603 -5.944,-65.947L-6.527,-68.402C-6.48,-69.158 -6.077,-69.546 -5.323,-69.566C-5.344,-70.32 -5.732,-70.687 -6.485,-70.666C-6.496,-71.079 -6.305,-71.666 -5.915,-72.433C-7.448,-78.361 -9.206,-81.332 -11.196,-81.348L-12.31,-80.7C-12.724,-80.689 -13.311,-80.88 -14.075,-81.271L-18.164,-80.132L-18.181,-80.75C-22.542,-79.603 -25.097,-79.02 -25.853,-79L-27,-79.586C-29.381,-78.766 -30.56,-77.981 -30.54,-77.226L-33.542,-77.867L-34.056,-77.853L-35.276,-77.306C-35.286,-77.647 -35.878,-78.043 -37.058,-78.492C-37.4,-78.483 -37.978,-78.296 -38.792,-77.931L-39.94,-78.518C-40.351,-78.507 -40.962,-78.285 -41.775,-77.851L-44.073,-79.128C-45.219,-78.341 -46.575,-77.756 -48.143,-77.372C-48.152,-77.714 -48.364,-77.914 -48.776,-77.972L-49.908,-77.942L-51.128,-77.395L-51.142,-77.909C-53.602,-77.499 -55.949,-76.751 -58.183,-75.662L-59.331,-76.249C-62.469,-75.477 -64.826,-75.071 -66.4,-75.029C-68.392,-75.043 -69.575,-75.629 -69.949,-76.787C-70.361,-76.843 -70.549,-76.256 -70.549,-76.256C-70.549,-76.256 -75.813,-78.035 -75.76,-78.587L-81.097,-78.032L-82.879,-79.219C-85.375,-77.642 -89.678,-76.875 -95.785,-76.916L-98.17,-77.573C-100.816,-76.405 -102.378,-75.814 -102.856,-75.802C-103.749,-75.778 -104.542,-75.962 -105.239,-76.355C-106.936,-75.623 -108.09,-75.249 -108.708,-75.232L-112.2,-78.741L-112.817,-78.725L-114.038,-78.178L-113.391,-77.062L-116.977,-76.451C-116.997,-77.206 -117.383,-77.606 -118.141,-77.655L-121.077,-75.827L-122.225,-76.414L-134.04,-71.773C-135.754,-71.795 -137.311,-72.201 -138.703,-72.987C-139.45,-72.623 -140.23,-72.432 -141.055,-72.41C-142.155,-72.446 -143.331,-72.863 -144.587,-73.652L-148.727,-70.66C-148.705,-69.835 -148.512,-69.052 -148.149,-68.308C-148.538,-67.473 -148.937,-65.712 -149.347,-63.025C-148.981,-62.28 -148.794,-61.703 -148.783,-61.291L-149.323,-58.395C-148.194,-57.19 -147.434,-51.893 -147.046,-42.502L-148.278,-42.469L-148.261,-41.852L-147.717,-40.734L-148.848,-40.704L-148.832,-40.087L-146.473,-36.548L-146.562,-36.031C-146.905,-36.022 -147.46,-36.212 -148.224,-36.604L-148.841,-36.587L-148.914,-35.454C-147.885,-35.412 -147.278,-34.605 -147.1,-33.032L-148.29,-23.634L-147.165,-20.164L-147.752,-19.017C-147.787,-17.78 -147.395,-17.173 -146.571,-17.195C-146.619,-16.439 -147.226,-16.046 -148.393,-16.014L-148.362,-14.883C-147.743,-14.831 -146.971,-14.233 -146.05,-13.092L-146.59,-10.196L-146.67,-5.46L-146.02,-4.242C-146.43,-4.231 -146.632,-4.053 -146.623,-3.711L-144.896,-0.773L-145.522,2.744C-145.126,7.261 -144.75,9.825 -144.391,10.433L-144.905,10.447C-144.916,12.575 -144.739,15.314 -144.374,18.667L-145.017,21.565C-144.999,22.251 -144.61,22.653 -143.853,22.769C-143.831,23.591 -144.017,24.387 -144.407,25.151C-144.39,25.769 -144.001,26.17 -143.243,26.355L-143.869,29.871C-143.842,30.9 -143.245,32.669 -142.078,35.175L-143.261,40.971L-142.714,42.192L-143.301,43.339C-142.52,49.427 -142.128,52.571 -142.123,52.777L-142.763,55.677C-142.353,55.666 -141.958,56.273 -141.583,57.497L-142.226,60.397C-141.437,61.611 -140.853,63.002 -140.468,64.57C-141.223,64.522 -141.623,64.91 -141.672,65.734L-141.658,66.248C-141.64,66.935 -141.25,67.335 -140.494,67.452C-140.508,69.443 -141.682,70.435 -144.016,70.428L-143.986,71.559L-141.618,71.599L-141.641,74.481C-140.866,75.285 -140.289,77.636 -139.909,81.538C-140.319,81.548 -140.521,81.759 -140.51,82.171C-140.099,82.16 -139.725,83.317 -139.388,85.64C-139.79,91.141 -140.204,94.892 -140.629,96.892C-140.218,96.881 -139.825,97.454 -139.451,98.61C-139.845,99.238 -140.03,100.034 -140.004,100.992L-140.014,104.493L-139.42,107.462C-139.831,107.473 -140.033,107.648 -140.023,107.992L-139.507,107.979C-139.904,111.144 -140.479,112.739 -141.231,112.759C-141.215,113.376 -140.827,113.741 -140.07,113.86L-140.126,115.611C-140.115,116.023 -139.892,116.634 -139.459,117.446L-140.713,132.095C-140.354,135.24 -139.569,137.586 -138.363,139.134L-137.246,138.589L-136.629,138.573C-135.6,138.613 -134.421,139.028 -133.097,139.815L-131.378,138.637L-129.01,138.677C-128.736,138.67 -127.183,139.039 -124.347,139.788L-123.112,139.856C-122.495,139.84 -122.092,139.452 -121.908,138.692L-120.761,139.279L-120.144,139.262L-119.023,138.718C-119.014,139.061 -118.806,139.227 -118.392,139.215L-115.524,138.726C-114.946,139.876 -114.346,140.445 -113.729,140.429L-111.907,139.247L-110.76,139.834C-110.769,139.49 -110.57,139.314 -110.156,139.303L-106.657,139.313C-106.697,140.479 -106.303,141.053 -105.479,141.031L-104.962,141.119L-104.922,138.75L-103.688,138.717L-103.745,140.468L-102.507,140.539L-102.557,138.687C-97.057,139.157 -93.516,139.371 -91.939,139.329C-91.388,139.382 -90.609,139.018 -89.601,138.237L-89.587,138.751C-87.049,138.751 -85.679,138.577 -85.485,138.229C-84.302,138.815 -83.739,139.417 -83.79,140.037C-82.556,140.003 -81.154,139.794 -79.587,139.41L-77.305,139.966L-74.967,138.873C-74.274,139.267 -73.477,139.451 -72.585,139.427C-71.762,139.473 -70.979,139.282 -70.233,138.85C-68.295,139.621 -66.91,140.03 -66.084,140.076L-57.264,138.914C-56.5,139.304 -55.91,139.494 -55.499,139.483C-55.156,139.474 -54.579,139.287 -53.765,138.922L-52.617,139.509C-52.342,139.501 -51.148,139.298 -49.031,138.898C-48.412,138.95 -48.025,139.35 -47.867,140.103C-46.698,140.138 -45.337,139.76 -43.78,138.963C-43.769,139.375 -43.557,139.575 -43.146,139.563L-35.014,139.551L-32.042,139.06C-32.033,139.403 -31.825,139.569 -31.411,139.558C-29.785,138.827 -28.63,138.453 -27.942,138.435C-26.845,138.473 -25.666,138.889 -24.41,139.679L-21.988,137.864C-22.047,138.276 -21.487,138.674 -20.31,139.054L-17.871,137.857L-16.724,138.442C-16.311,138.5 -15.734,138.314 -14.989,137.882L-14.973,138.499L-13.254,137.321L-12.637,137.304L-11.49,137.891C-11.437,137.34 -10.456,136.764 -8.551,136.165C-5.34,135.668 -2.771,134.294 -0.839,132.046C-1.165,130.134 -1.741,129.154 -2.564,129.109C-2.573,128.765 -2.374,128.588 -1.96,128.578L-2.557,125.608C-2.568,125.198 -2.377,124.609 -1.987,123.844C-2.33,123.853 -2.911,122.667 -3.729,120.288L-3.686,118.023C-3.708,117.201 -3.344,116.778 -2.588,116.758L-3.132,115.641L-3.109,112.655L-1.975,112.727L-2.569,109.758L-2.545,106.772L-0.691,106.826C-0.733,105.248 -1.133,104.471 -1.889,104.491L-1.922,103.257C-1.942,102.502 -1.539,102.115 -0.718,102.093C-0.738,101.339 -1.127,100.938 -1.882,100.889C-1.891,100.546 -1.689,100.369 -1.278,100.358C-1.29,99.946 -1.499,99.746 -1.912,99.757C-1.923,99.345 -1.732,98.758 -1.342,97.993L-2.417,96.272L-2.497,93.289L-1.91,92.142C-2.255,92.151 -2.429,91.949 -2.44,91.538L-2.471,90.406C-0.894,90.363 -0.083,89.966 -0.032,89.208C-0.054,88.386 -0.479,87.985 -1.299,88.007L-0.646,85.622C-0.669,84.732 -0.862,83.948 -1.223,83.271C-0.828,82.576 -0.644,81.814 -0.666,80.992C-0.65,79.07 -0.839,77.085 -1.237,75.037L-0.61,71.521C-0.63,70.767 -1.019,70.399 -1.771,70.419L-0.547,66.27C-0.978,65.527 -1.17,64.742 -1.125,63.918L-1.141,63.301L-0.007,63.374L-0.023,62.756C-0.606,61.537 -1.169,60.934 -1.718,60.949C-1.738,60.196 -1.167,59.802 0,59.771" style="fill:rgb(10,10,10);fill-rule:nonzero;"/>
            </g>
        </g>
        <g transform="matrix(4.166667,0,0,4.166667,0,0)">
            <g transform="matrix(1,0,0,1,150.47915,350.481591)">
                <path d="M0,-147.751L0.017,-147.134L-0.394,-147.123L-0.411,-147.74L0,-147.751ZM-10.807,-143.962L-10.798,-143.653L-11.829,-143.626L-11.837,-143.934L-10.807,-143.962ZM-11.598,-96.698L-12.319,-96.679L-12.338,-97.398C-11.86,-97.411 -11.611,-97.177 -11.598,-96.698M-15.669,-117.998L-15.658,-117.585C-15.864,-117.58 -16.204,-117.467 -16.677,-117.25L-18.126,-117.519L-18.146,-118.24L-15.669,-117.998ZM-22.229,-101.662L-22.522,-101.036L-23.969,-101.306L-23.977,-101.615L-22.229,-101.662ZM-29.895,-153.331L-29.875,-152.61L-30.286,-152.599L-30.306,-153.32L-29.895,-153.331ZM-28.958,-37.874L-28.226,-37.481L-28.5,-36.135C-29.194,-36.459 -29.546,-36.793 -29.555,-37.137C-29.566,-37.549 -29.369,-37.793 -28.958,-37.874M-32.317,-151.516C-31.996,-147.269 -31.688,-144.705 -31.39,-143.822C-31.664,-143.814 -31.868,-142.504 -32.005,-139.894C-31.453,-137.163 -31.036,-134.499 -30.759,-131.899C-30.966,-131.894 -31.066,-131.788 -31.061,-131.583C-31.054,-131.308 -30.941,-130.968 -30.723,-130.562C-30.93,-130.556 -31.03,-130.416 -31.022,-130.143L-30.893,-125.308L-31.245,-123.137L-30.815,-122.429C-31.009,-119.403 -31.08,-116.966 -31.03,-115.115L-30.956,-112.337L-31.219,-110.581C-31.012,-110.586 -30.738,-109.29 -30.393,-106.691C-30.804,-106.68 -31.027,-105.989 -31.059,-104.615C-31.044,-104.066 -30.928,-103.59 -30.71,-103.184L-31.003,-102.558C-30.723,-99.82 -30.566,-97.835 -30.533,-96.601L-30.796,-94.845C-30.59,-94.85 -30.482,-94.714 -30.475,-94.441L-31.139,-80.837C-30.867,-80.845 -30.725,-80.709 -30.717,-80.437C-30.706,-80.026 -30.898,-78.168 -31.289,-74.864L-30.932,-73.124L-31.176,-70.647L-30.818,-68.907L-31.109,-68.179C-31.104,-67.973 -30.991,-67.631 -30.771,-67.158C-30.925,-65.164 -30.985,-63.55 -30.952,-62.315L-30.894,-60.157C-30.881,-59.675 -31.008,-59.227 -31.269,-58.808C-30.986,-58.403 -30.834,-57.927 -30.82,-57.379L-30.558,-47.609C-30.504,-45.618 -30.564,-42.701 -30.733,-38.855C-30.461,-38.862 -30.319,-38.727 -30.312,-38.454L-30.722,-38.443L-30.249,-36.088L-30.124,-31.461C-30.102,-30.638 -30.213,-29.605 -30.452,-28.364C-30.173,-28.096 -30.012,-27.277 -29.975,-25.907L-29.928,-24.157L-29.599,-23.447L-29.909,-23.438L-29.552,-21.698L-29.215,-9.15L-28.738,-6.692C-29.013,-6.685 -29.146,-6.58 -29.141,-6.373L-28.711,-5.665C-28.985,-5.657 -29.118,-5.517 -29.11,-5.242L-29.102,-4.933C-29.08,-4.111 -28.916,-3.051 -28.606,-1.756L-29,-1.128C-28.717,-0.723 -28.565,-0.249 -28.551,0.301L-28.418,5.238C-28.396,6.061 -27.01,6.606 -24.258,6.876C-23.986,6.869 -23.612,6.72 -23.138,6.434L-22.509,6.83C-22.238,6.822 -21.863,6.673 -21.389,6.387C-19.805,6.618 -18.534,6.723 -17.572,6.697L-16.544,6.669L-15.834,6.238L-15.508,6.95C-14.958,6.936 -14.48,6.819 -14.075,6.603C-13.659,6.797 -13.178,6.888 -12.628,6.873L-9.542,6.791L-8.83,6.462L-8.822,6.771L-1.538,5.854L1.978,6.481C1.972,6.276 2.105,6.169 2.38,6.162L8.373,7.029C9.197,7.007 10.939,6.72 13.599,6.169L14.224,6.461C16.823,6.185 19.05,6.023 20.902,5.974L23.371,5.907C23.849,5.895 24.085,5.647 24.072,5.167C24.14,5.166 25.071,5.38 26.867,5.813C29.673,5.533 31.072,5.253 31.065,4.979C33.188,4.923 34.667,3.716 35.496,1.362L35.03,-0.684C35.022,-0.959 35.237,-1.891 35.676,-3.481L35.629,-5.23C35.607,-6.052 35.475,-7.114 35.233,-8.409C35.429,-8.827 35.52,-9.308 35.505,-9.857C35.492,-10.337 35.376,-10.78 35.159,-11.187C35.354,-11.603 35.445,-12.085 35.43,-12.634L35.411,-13.355L35.084,-13.964L35.395,-13.972C35.387,-14.245 35.274,-14.619 35.054,-15.095C35.048,-15.3 35.143,-15.646 35.336,-16.131C35.119,-16.538 35.003,-16.979 34.991,-17.46L34.96,-18.591L35.224,-20.348C34.526,-20.672 34.177,-21.006 34.168,-21.35C31.33,-22.165 29.912,-22.71 29.904,-22.985C28.269,-22.459 26.084,-22.059 23.349,-21.779C21.627,-21.94 20.559,-22.116 20.143,-22.311L19.431,-21.983L16.954,-22.225L16.345,-21.9C16.337,-22.173 15.51,-22.392 13.859,-22.554L13.15,-22.123L12.418,-22.516L10.379,-21.74C5.716,-21.615 3.339,-23.3 3.245,-26.798L3.171,-29.575C3.101,-32.179 2.871,-35.57 2.487,-39.746C2.748,-40.166 2.875,-40.614 2.862,-41.095C2.587,-41.087 2.448,-41.22 2.44,-41.495L2.945,-49.536L2.217,-49.825L2.608,-50.557L2.597,-50.967L2.17,-51.574L2.58,-51.584L2.104,-54.043C2.03,-56.785 2.219,-58.677 2.672,-59.719C2.455,-60.125 2.339,-60.567 2.326,-61.048L2.26,-63.516L1.83,-64.225C2.102,-64.232 2.238,-64.338 2.232,-64.545L2.194,-65.984C2.183,-66.397 1.937,-66.629 1.454,-66.686L1.717,-68.442L1.391,-69.051C1.597,-69.057 1.697,-69.195 1.689,-69.47L1.587,-73.275C1.536,-75.195 1.392,-76.701 1.156,-77.793C1.318,-79.444 1.401,-85.278 1.407,-95.296C1.133,-95.289 0.993,-95.422 0.986,-95.697C1.464,-95.71 1.66,-97.465 1.565,-100.961L1.37,-108.265C1.307,-110.595 1.128,-113.405 0.833,-116.69C1.284,-117.731 1.486,-119.245 1.433,-121.234L1.413,-121.955C1.329,-125.107 1.018,-127.673 0.486,-129.649L1.607,-153.044C1.589,-153.728 0.652,-154.184 -1.207,-154.409C-1.618,-154.398 -3.502,-154.244 -6.857,-153.949L-8.921,-154.202L-10.354,-153.855C-14.606,-153.741 -19.724,-154.048 -25.714,-154.78L-30.651,-154.647C-31.801,-153.999 -32.355,-152.956 -32.317,-151.516" style="fill:white;fill-rule:nonzero;"/>
            </g>
        </g>
        <g transform="matrix(4.166667,0,0,4.166667,0,0)">
            <g transform="matrix(1,0,0,1,244.28185,315.068091)">
                <path d="M0,-154.34L0.003,-154.031L-0.614,-154.025L-0.617,-154.334L0,-154.34ZM-6.998,-154.268L-6.995,-153.959L-7.609,-153.952L-7.612,-154.261L-6.998,-154.268ZM-13.112,-69.213L-13.104,-68.492L-13.722,-68.486L-13.729,-69.207L-13.112,-69.213ZM-28.141,-69.778L-28.126,-68.337L-28.844,-68.329L-28.851,-69.05C-28.855,-69.462 -28.619,-69.704 -28.141,-69.778M-26.174,-88.627L-24.104,-87.312C-24.084,-85.46 -25.137,-84.385 -27.258,-84.088L-27.568,-84.085L-29.32,-84.376C-29.35,-87.188 -28.301,-88.605 -26.174,-88.627M-30.774,-155.049C-30.777,-155.322 -30.879,-155.46 -31.086,-155.458L-31.497,-155.454C-31.842,-155.45 -32.177,-154.726 -32.505,-153.282C-31.838,-148.486 -31.229,-145.921 -30.676,-145.584C-31.355,-144.96 -31.669,-142.178 -31.618,-137.24L-31.541,-129.833C-31.517,-127.5 -31.385,-124.723 -31.145,-121.502C-31.348,-121.156 -31.443,-120.434 -31.432,-119.338C-31.221,-118.928 -31.114,-118.585 -31.111,-118.312C-31.318,-118.31 -31.42,-118.207 -31.418,-118C-31.207,-117.591 -31.099,-117.111 -31.093,-116.563L-31.036,-111.008L-30.617,-110.291C-30.892,-110.289 -31.027,-110.185 -31.025,-109.979L-31.002,-107.819C-30.998,-107.338 -30.857,-106.894 -30.578,-106.485C-30.848,-106.071 -30.979,-105.589 -30.974,-105.041L-30.958,-103.601C-30.91,-98.935 -30.64,-95.921 -30.147,-94.554L-30.447,-93.831C-30.38,-87.452 -29.863,-80.597 -28.895,-73.268C-29.097,-72.785 -29.196,-72.407 -29.193,-72.134C-29.191,-71.927 -29.084,-71.584 -28.873,-71.108C-29.743,-68.971 -30.176,-67.698 -30.171,-67.287L-30.161,-66.257L-29.428,-65.134L-29.417,-64.106L-30.127,-63.069L-30.125,-62.76L-29.81,-62.043C-30.22,-62.038 -30.555,-61.212 -30.812,-59.564L-30.495,-58.846L-30.797,-58.124C-30.786,-57.025 -30.67,-55.861 -30.451,-54.628L-31.032,-51.124L-30.718,-50.509C-30.912,-49.203 -31.001,-48.14 -30.992,-47.317L-30.938,-42.069C-30.912,-39.532 -30.685,-37.303 -30.251,-35.389C-30.458,-35.387 -30.56,-35.282 -30.558,-35.077C-30.556,-34.872 -30.449,-34.529 -30.237,-34.051C-30.234,-33.776 -30.334,-33.432 -30.537,-33.02C-30.534,-32.745 -30.427,-32.368 -30.215,-31.891L-30.511,-30.55C-30.501,-29.589 -30.388,-28.663 -30.172,-27.775L-30.705,-19.642C-30.501,-19.644 -30.397,-19.542 -30.395,-19.336L-30.658,-15.115L-30.333,-13.369C-30.54,-13.367 -30.639,-13.262 -30.637,-13.057C-30.623,-11.683 -30.405,-10.384 -29.979,-9.154C-30.182,-8.739 -30.28,-8.293 -30.275,-7.814L-30.235,-3.904L-29.907,-2.158C-30.113,-2.156 -30.213,-1.813 -30.206,-1.126L-30.185,0.932C-30.179,1.48 -29.35,1.952 -27.7,2.346L-23.489,1.583C-23.487,1.788 -23.382,1.891 -23.179,1.889L-19.988,1.856L-19.374,1.54L-19.371,1.849L-16.184,1.507C-15.156,1.497 -14.23,1.589 -13.404,1.787C-12.446,1.571 -11.522,1.459 -10.63,1.45L-8.468,1.428L-4.967,1.7C-4.969,1.493 -4.867,1.39 -4.663,1.388L-3.938,1.689C-0.441,1.653 1.292,0.125 1.261,-2.892C1.259,-3.098 1.152,-3.441 0.943,-3.919C1.324,-6.803 1.63,-10.304 1.862,-14.423C1.583,-14.832 1.441,-15.412 1.433,-16.169L1.426,-16.888C1.397,-19.631 1.265,-22.408 1.029,-25.218C1.223,-26.523 1.315,-27.588 1.306,-28.41L0.978,-30.157C1.2,-35.234 1.508,-38.633 1.903,-40.352C1.49,-40.348 1.117,-43.26 0.782,-49.087L1.067,-51.457L0.75,-52.174L1.045,-53.617C0.978,-60.132 0.706,-66.406 0.232,-72.439C0.711,-72.444 1.242,-77.352 1.829,-87.169L1.4,-88.913C1.866,-90.083 2.097,-90.91 2.092,-91.39C2.086,-91.938 1.976,-92.863 1.756,-94.165C1.938,-96.498 2.021,-98.248 2.009,-99.415C1.997,-100.58 1.878,-102.328 1.647,-104.658L1.947,-105.382C1.739,-105.792 1.63,-106.27 1.625,-106.819C1.617,-107.574 1.709,-108.603 1.9,-109.909L1.585,-110.626L2.548,-116.912L2.13,-117.629C2.548,-123.462 2.747,-127.649 2.721,-130.188L2.698,-132.347L2.37,-134.094C2.577,-134.097 2.677,-134.439 2.669,-135.126L2.648,-137.183C2.16,-137.863 1.805,-139.027 1.581,-140.67L1.876,-142.115C1.669,-142.113 1.565,-142.214 1.562,-142.421L1.865,-143.143C1.862,-143.416 1.755,-143.759 1.544,-144.17C1.751,-144.172 2.067,-146.747 2.496,-151.896L2.485,-152.924C2.48,-153.336 2.236,-153.573 1.756,-153.637L2.16,-154.362L2.152,-155.082C1.802,-155.764 1.456,-156.104 1.113,-156.101L-1.356,-156.075L-4.857,-156.347C-4.855,-156.141 -4.993,-156.037 -5.264,-156.034C-5.267,-156.24 -5.371,-156.342 -5.578,-156.34L-7.02,-156.325C-8.804,-156.307 -10.415,-156.426 -11.856,-156.686C-12.953,-156.4 -14.461,-156.248 -16.381,-156.228L-17.102,-156.22L-17.816,-155.904L-18.134,-156.62C-18.544,-156.616 -18.784,-156.373 -18.847,-155.894C-19.258,-155.889 -19.842,-156.123 -20.604,-156.595C-21.289,-156.588 -22.112,-156.442 -23.069,-156.159L-23.791,-156.562L-24.508,-156.144L-24.512,-156.554C-26.775,-156.531 -28.864,-156.029 -30.774,-155.049" style="fill:white;fill-rule:nonzero;"/>
            </g>
        </g>
        <g transform="matrix(4.166667,0,0,4.166667,0,0)">
            <g transform="matrix(1,0,0,1,380.75255,228.215891)">
                <path d="M0,50.021L0.005,51.153L-0.302,51.154C-0.304,50.881 -0.444,50.505 -0.721,50.024L0,50.021ZM0.532,77.387L0.533,77.696C-0.018,77.22 -0.737,76.982 -1.629,76.986L-1.632,76.266C-0.189,76.603 0.53,76.977 0.532,77.387M-1.166,88.919L-1.884,88.923L-1.887,88.202C-1.408,88.2 -1.168,88.439 -1.166,88.919M-4.293,102.514L-4.29,103.235L-5.011,103.238C-5.013,102.826 -4.774,102.584 -4.293,102.514M-4.724,75.25L-4.721,75.97L-5.132,75.972L-5.135,75.251L-4.724,75.25ZM-6.009,-51.709L-6.007,-51.4L-7.035,-51.396L-7.037,-51.705L-6.009,-51.709ZM-4.015,95.928L-4.012,96.649C-4.01,97.06 -4.213,97.267 -4.626,97.269C-5.178,96.859 -6.003,96.658 -7.099,96.663L-7.102,95.941L-4.015,95.928ZM-7.147,85.755L-7.143,86.785L-7.553,86.787C-7.554,86.58 -7.659,86.239 -7.865,85.759L-7.147,85.755ZM-6.619,42.438L-6.616,43.055L-7.337,43.058C-7.748,43.06 -7.991,42.854 -8.058,42.444L-6.619,42.438ZM-7.124,91.003C-7.123,91.278 -6.883,91.413 -6.401,91.411L-6.398,92.028L-6.806,92.751C-7.7,92.413 -8.147,92.072 -8.149,91.728L-8.15,91.419C-7.943,91.418 -7.602,91.28 -7.124,91.003M-8.316,53.968L-8.315,54.277L-9.036,54.28L-9.038,53.971L-8.316,53.968ZM-11.332,93.491L-11.329,94.211L-11.636,94.213L-11.639,93.492L-11.332,93.491ZM-10.36,80.214L-11.081,80.217C-11.768,79.878 -12.111,79.537 -12.113,79.192C-10.949,79.326 -10.362,79.666 -10.36,80.214M-13.225,-8.979C-12.814,-8.981 -12.231,-8.741 -11.473,-8.266C-11.471,-7.854 -11.677,-7.647 -12.088,-7.646L-12.499,-7.644C-12.501,-8.33 -12.849,-8.672 -13.534,-8.669L-13.536,-8.978L-13.225,-8.979ZM-16.138,-39.42L-16.134,-38.701L-16.444,-38.7L-16.448,-39.419L-16.138,-39.42ZM-17.541,-54.128L-17.539,-53.716L-18.26,-53.712L-18.262,-54.125L-17.541,-54.128ZM-18.562,-29.223C-18.083,-29.226 -17.843,-29.021 -17.841,-28.61L-17.839,-28.198L-18.147,-28.197C-18.833,-28.537 -19.178,-28.878 -19.179,-29.221L-18.562,-29.223ZM-20.935,-30.654C-20.524,-30.656 -20.316,-30.415 -20.314,-29.937L-20.624,-29.935C-21.035,-29.933 -21.278,-30.171 -21.348,-30.652L-20.935,-30.654ZM-22.411,30.881L-22.409,31.292L-23.543,31.296L-23.545,30.886L-22.411,30.881ZM-23.899,-48.852L-23.895,-47.823L-24.202,-47.822L-24.206,-48.85L-23.899,-48.852ZM-24.395,71.12L-24.391,71.839L-24.698,71.84L-24.702,71.121L-24.395,71.12ZM-27.983,50.558C-27.021,51.103 -26.538,51.545 -26.536,51.888L-26.95,51.89C-27.844,51.346 -28.289,50.903 -28.291,50.559L-27.983,50.558ZM-30.784,45.322L-30.781,46.042C-31.194,46.044 -31.435,45.806 -31.505,45.325L-30.784,45.322ZM-32.437,67.039C-32.232,67.038 -31.304,67.24 -29.657,67.644L-28.628,67.639L-28.625,68.36L-32.744,67.657L-32.747,67.04L-32.437,67.039ZM-32.578,35.145L-32.576,35.556L-34.635,35.564L-34.637,35.154L-32.578,35.145ZM-36.485,12.835L-36.484,13.144L-37.205,13.147L-37.206,12.838L-36.485,12.835ZM-41.527,58.952C-41.525,59.432 -41.766,59.672 -42.245,59.674L-42.655,59.676C-43.069,59.678 -43.274,59.439 -43.276,58.959L-43.279,58.342L-42.975,57.62C-42.012,58.165 -41.529,58.609 -41.527,58.952M-55.422,11.478L-55.421,11.786L-56.142,11.79L-56.143,11.481L-55.422,11.478ZM-60.754,62.226L-60.752,62.535L-62.191,62.542L-62.192,62.232L-60.754,62.226ZM-64.708,52.058C-64.706,52.332 -64.569,52.709 -64.292,53.187L-64.703,53.189C-65.116,53.191 -65.356,52.953 -65.426,52.473L-65.428,52.061L-64.708,52.058ZM-64.253,61.933C-64.251,62.345 -64.493,62.551 -64.971,62.554L-65.692,62.557C-66.103,62.559 -66.343,62.354 -66.413,61.942L-64.253,61.933ZM-67.393,73.47C-66.911,73.468 -66.67,73.709 -66.668,74.188L-66.667,74.497C-67.007,75.185 -67.348,75.527 -67.69,75.529C-67.691,75.324 -67.832,74.981 -68.105,74.503C-68.109,73.817 -67.871,73.472 -67.393,73.47M-72.167,-52.445C-74.021,-52.848 -74.951,-53.324 -74.954,-53.873C-73.1,-53.537 -72.17,-53.062 -72.167,-52.445M-77.283,-22.379L-77.28,-21.658L-77.587,-21.657C-77.588,-21.862 -77.729,-22.204 -78.002,-22.685L-77.283,-22.379ZM-75.906,55.606C-75.905,55.881 -75.665,56.016 -75.187,56.014C-75.384,57.319 -75.484,58.246 -75.481,58.793L-76.202,58.797C-76.208,57.425 -76.896,56.742 -78.268,56.749C-78.27,56.336 -77.485,55.956 -75.906,55.606M-77.979,52.528L-77.978,52.837L-79.419,52.844L-79.42,52.535L-77.979,52.528ZM-78.512,94.818L-76.039,95.527L-76.038,95.835L-76.345,95.837C-77.17,95.635 -78.474,95.538 -80.258,95.545L-80.259,95.237L-78.512,94.818ZM-85.709,49.374L-85.707,50.093C-86.117,50.095 -86.36,49.856 -86.43,49.377L-85.709,49.374ZM-88.639,-54.121L-88.637,-53.812L-88.224,-53.093L-89.251,-53.089L-89.245,-51.648L-87.495,-51.348L-85.437,-51.666C-84.75,-51.258 -83.479,-51.057 -81.629,-51.065L-81.627,-50.654L-84.405,-50.642C-85.365,-50.638 -86.636,-50.768 -88.214,-51.036C-88.213,-50.761 -88.349,-50.625 -88.623,-50.623C-88.625,-50.896 -88.729,-51.033 -88.932,-51.033L-89.242,-51.031L-89.642,-48.56L-89.631,-46.091L-89.217,-45.373L-89.628,-45.371C-89.619,-43.313 -89.369,-40.981 -88.876,-38.378C-89.083,-38.377 -89.186,-38.273 -89.185,-38.068C-89.184,-37.793 -89.079,-37.451 -88.87,-37.04C-89.068,-35.049 -89.164,-33.402 -89.158,-32.101L-89.144,-28.91L-88.826,-27.163C-89.033,-27.162 -89.136,-27.059 -89.135,-26.853C-89.134,-26.647 -89.029,-26.303 -88.82,-25.826C-88.818,-25.276 -88.919,-24.795 -89.124,-24.384C-89.123,-24.177 -89.018,-23.833 -88.81,-23.356C-88.997,-18.965 -89.227,-16.289 -89.495,-15.328C-89.216,-13.889 -88.731,-13.17 -88.046,-13.173L-88.043,-12.556C-88.593,-12.553 -89.071,-12.414 -89.48,-12.139C-89.479,-11.932 -89.343,-11.831 -89.068,-11.832L-89.46,-7.611L-89.046,-6.892L-89.457,-6.89C-89.456,-6.685 -89.319,-6.341 -89.042,-5.864L-89.449,-5.142L-89.036,-4.424C-89.035,-4.217 -89.172,-3.872 -89.441,-3.393L-88.384,3.188C-88.591,3.189 -88.691,3.327 -88.69,3.6L-88.376,4.937C-88.373,5.691 -88.473,6.516 -88.673,7.408L-87.933,12.343C-88.208,12.344 -88.343,12.448 -88.342,12.653L-87.929,13.372L-88.336,14.093C-88.06,14.504 -87.921,14.95 -87.919,15.43C-87.917,15.979 -88.051,16.458 -88.324,16.872C-88.047,17.281 -87.909,17.762 -87.907,18.31L-87.879,24.586L-88.28,26.646C-88.005,26.645 -87.755,29.215 -87.525,34.359C-87.524,34.564 -87.626,34.909 -87.831,35.39C-87.689,36.075 -87.442,37.721 -87.088,40.325C-87.357,41.561 -87.488,42.729 -87.483,43.824L-87.479,44.854L-87.06,46.601C-87.335,46.602 -87.469,46.947 -87.466,47.631L-87.457,49.792C-87.455,50.204 -87.214,50.408 -86.733,50.406L-87.04,51.128L-87.02,55.656L-86.702,57.403C-86.909,57.404 -87.012,57.542 -87.01,57.815C-87,60.147 -86.413,61.312 -85.246,61.307L-85.245,61.614L-86.683,61.621L-86.674,63.781L-86.359,65.529C-86.563,65.53 -86.666,65.634 -86.665,65.839C-86.663,66.183 -86.421,66.662 -85.938,67.276L-85.931,68.614L-86.335,70.777C-86.059,71.187 -85.917,71.77 -85.914,72.524L-85.91,73.552C-85.905,74.514 -86.039,75.783 -86.306,77.362C-86.03,77.771 -85.889,78.252 -85.886,78.8C-85.884,79.281 -86.021,79.727 -86.294,80.139L-85.539,87.853L-85.843,88.575L-85.1,94.127C-85.37,95.363 -85.502,96.084 -85.501,96.29C-85.488,99.238 -84.999,101.671 -84.027,103.589L-83.72,103.587C-83.241,103.585 -83,103.342 -83.002,102.864L-81.971,103.58L-81.251,103.268C-81.25,103.473 -81.147,103.576 -80.943,103.575C-80.461,103.573 -80.223,103.33 -80.226,102.851C-78.646,103.323 -76.656,103.692 -74.253,103.956C-74.254,103.682 -74.151,103.545 -73.944,103.544L-70.025,105.995L-69.715,105.994C-69.236,105.992 -68.998,105.75 -69,105.271C-68.313,105.747 -66.08,106.217 -62.306,106.682C-59.979,105.642 -58.815,104.917 -58.817,104.505C-58.819,104.025 -58.96,103.58 -59.234,103.17L-58.826,102.448L-59.24,101.729L-58.521,101.417C-58.522,101.006 -58.766,100.766 -59.245,100.701C-58.976,100.15 -58.738,99.085 -58.538,97.508C-58.745,97.509 -58.849,97.406 -58.85,97.201L-58.54,97.199C-59.034,94.184 -59.282,92.333 -59.285,91.646L-58.89,88.146C-58.892,87.734 -59.132,87.496 -59.614,87.429C-59.274,86.743 -58.933,86.397 -58.587,86.396C-59.086,82.42 -59.336,80.089 -59.339,79.402L-58.932,78.681L-59.346,77.962L-58.949,74.771L-59.363,74.155C-58.884,74.153 -58.646,73.192 -58.654,71.272C-58.655,71.065 -58.76,70.724 -58.969,70.244L-58.659,70.242L-59.394,67.158C-59.395,66.953 -59.262,66.233 -58.993,64.997C-58.996,64.312 -59.138,63.489 -59.414,62.529C-59.147,61.362 -59.014,60.196 -59.019,59.029L-59.027,57.28C-59.78,57.284 -60.159,57.079 -60.161,56.668L-60.163,56.256L-59.752,56.254L-59.03,56.663C-59.321,52.892 -59.569,51.006 -59.775,51.007C-59.569,51.006 -59.466,50.903 -59.467,50.697L-59.478,48.228C-59.484,46.857 -59.933,46.172 -60.825,46.176L-60.828,45.455C-60.143,45.452 -59.801,45.211 -59.803,44.731L-59.81,43.291L-60.223,42.675C-60.016,42.674 -59.541,41.952 -58.791,40.508L-58.484,40.506C-57.099,43.793 -56.026,45.676 -55.268,46.151C-53.742,50.465 -52.565,52.794 -51.739,53.131L-46.142,62.161L-43.956,68.119C-40.825,78.052 -39.054,83.052 -38.643,83.118C-38.629,86.204 -36.03,92.024 -30.849,100.574C-30.495,103.109 -29.562,104.375 -28.052,104.369C-28.05,104.847 -28.291,105.09 -28.77,105.093L-28.044,106.118L-18.997,105.049C-15.566,105.307 -12.511,105.431 -9.837,105.419C-9.152,105.416 -8.81,105.174 -8.812,104.695C-8.605,104.694 -8.262,104.795 -7.78,105C-6.409,104.993 -5.143,104.746 -3.978,104.262L-3.976,104.674C0.278,104.655 2.398,103.821 2.391,102.176C1.617,97.446 1.226,94.636 1.222,93.744L1.626,91.684L1.21,90.967C1.207,90.281 1.342,89.458 1.612,88.495C1.329,86.508 1.182,84.758 1.176,83.25C1.174,82.838 0.969,82.634 0.555,82.635L1.167,81.191C0.712,71.317 0.481,65.968 0.478,65.144C0.879,62.331 1.073,60.1 1.065,58.454L1.056,56.396C1.039,52.349 1.157,47.891 1.411,43.019L0.661,36.438C0.867,36.437 0.967,36.197 0.964,35.715L0.654,34.997L0.961,34.996L0.646,33.247L0.645,32.938L0.941,30.469C0.737,30.469 0.634,30.367 0.633,30.161L0.937,29.439C0.726,27.864 0.617,26.56 0.612,25.53L0.604,23.782L0.893,19.665C0.689,19.666 0.585,19.53 0.584,19.254C0.791,19.253 0.891,19.151 0.89,18.944L0.875,15.446C0.869,14.145 0.657,12.397 0.234,10.203L0.811,1.043C0.809,0.631 0.604,0.427 0.19,0.428C0.189,0.155 0.292,0.016 0.499,0.015C0.488,-2.316 0.715,-5.233 1.181,-8.734C1.179,-9.145 0.936,-9.383 0.457,-9.451L1.173,-10.483L1.156,-14.29C1.147,-16.278 1.38,-17.789 1.854,-18.82L1.434,-20.978L1.42,-24.065C1.417,-24.613 1.551,-25.095 1.824,-25.507C1.548,-25.918 1.41,-26.396 1.407,-26.945L1.394,-30.033L1.796,-31.783C1.521,-31.782 1.385,-31.919 1.384,-32.194C1.37,-35.417 1.699,-38.333 2.373,-40.943L2.063,-41.559L2.367,-42.281L1.739,-44.748L2.046,-45.469C1.823,-49.103 1.708,-51.777 1.7,-53.493C1.692,-55.206 0.042,-56.264 -3.25,-56.661L-5.308,-56.24C-5.583,-56.239 -5.719,-56.374 -5.72,-56.65C-6.955,-56.645 -7.879,-56.398 -8.494,-55.917L-8.496,-56.226L-15.798,-55.473C-15.799,-55.746 -15.939,-55.884 -16.21,-55.883L-16.93,-55.467C-17.963,-55.943 -19.713,-56.312 -22.181,-56.577C-24.582,-56.29 -26.193,-55.906 -27.012,-55.423L-25.932,-43.596C-26.136,-43.115 -26.238,-42.771 -26.237,-42.566C-26.236,-42.29 -26.131,-41.914 -25.922,-41.435C-26.384,-37.112 -26.702,-31.416 -26.875,-24.352L-26.119,-15.917L-26.526,-15.195C-26.245,-13.619 -26.104,-12.693 -26.104,-12.42L-27.173,1.578C-27.172,1.853 -26.927,3.121 -26.435,5.381C-26.64,5.864 -26.739,6.207 -26.738,6.412L-26.427,7.132C-26.425,7.612 -26.664,7.852 -27.145,7.854L-26.713,12.071L-26.708,13.101C-27.183,14.68 -27.416,16.087 -27.41,17.321L-32.688,10.349C-34.835,5.831 -36.252,3.367 -36.939,2.959C-40.458,-1.552 -42.222,-5.042 -42.233,-7.512C-43.13,-8.604 -44.17,-10.692 -45.348,-13.774C-46.404,-19.394 -47.968,-24.292 -50.042,-28.468C-52.124,-33.532 -53.165,-36.443 -53.168,-37.198C-53.177,-39.256 -54.014,-41.927 -55.674,-45.212C-55.687,-48.23 -56.526,-51.485 -58.187,-54.976C-61.412,-54.756 -63.021,-54.405 -63.019,-53.926C-63.429,-53.924 -64.015,-54.161 -64.771,-54.638C-65.593,-54.359 -66.071,-54.221 -66.21,-54.221C-73.891,-54.187 -78.902,-54.987 -81.24,-56.624L-82.682,-56.617C-83.164,-56.615 -83.606,-56.51 -84.019,-56.303C-84.431,-56.506 -84.913,-56.607 -85.459,-56.605L-86.18,-56.602L-86.899,-56.29C-86.9,-56.495 -87.004,-56.598 -87.208,-56.597L-88.239,-56.593L-88.639,-54.121Z" style="fill:white;fill-rule:nonzero;"/>
            </g>
        </g>
        <g transform="matrix(4.166667,0,0,4.166667,0,0)">
            <g transform="matrix(1,0,0,1,521.65785,222.901691)">
                <path d="M0,115.241L0.008,115.55L-0.299,115.558C-2.083,115.606 -3.159,115.154 -3.527,114.204L-3.535,113.895C-3.329,113.889 -2.152,114.338 0,115.241M-6.221,102.028L-6.202,102.747L-6.612,102.758L-6.631,102.039L-6.221,102.028ZM-10.598,-7.368L-10.579,-6.648L-12.025,-6.918L-12.037,-7.33L-10.598,-7.368ZM-6.946,117.177C-6.935,117.589 -7.611,117.95 -8.977,118.26L-9.016,116.82C-8.666,117.086 -7.974,117.204 -6.946,117.177M-8.554,122.469L-8.847,123.094C-9.332,122.902 -9.677,122.807 -9.883,122.813L-9.892,122.505L-8.554,122.469ZM-12.831,12.968L-12.82,13.38L-13.54,13.399L-13.551,12.987L-12.831,12.968ZM-11.212,111.631C-10.024,112.491 -9.424,113.059 -9.417,113.332L-9.406,113.744L-11.886,113.398L-11.933,111.65L-11.212,111.631ZM-12.213,89.631L-12.194,90.35L-12.504,90.359L-12.523,89.639L-12.213,89.631ZM-9.173,7.312L-8.743,8.022C-9.018,8.029 -9.393,8.141 -9.866,8.359C-9.872,8.154 -9.978,8.055 -10.185,8.06L-11.933,8.107C-12.618,8.126 -13.533,8.493 -14.681,9.21L-15.111,8.5C-15.122,8.09 -14.889,7.844 -14.41,7.762L-12.661,7.715L-9.173,7.312ZM-15.26,2.947L-14.54,2.927L-14.492,4.676L-15.213,4.695C-15.626,4.706 -15.836,4.472 -15.85,3.992L-15.858,3.684C-15.869,3.272 -15.671,3.027 -15.26,2.947M-15.363,10.669L-15.355,10.977L-16.075,10.996L-16.083,10.688L-15.363,10.669ZM-14.58,93.503L-14.15,94.212L-15.591,94.251L-15.599,93.942C-15.325,93.935 -14.986,93.788 -14.58,93.503M-15.53,123.274C-15.052,123.261 -14.806,123.495 -14.793,123.975L-16.542,124.022L-16.561,123.301L-15.53,123.274ZM-17.368,77.83L-17.329,79.27L-17.742,79.281C-17.757,78.733 -17.87,78.256 -18.088,77.849L-17.368,77.83ZM-19.6,10.063L-18.549,10.754L-19.139,11.8L-19.092,13.548L-19.813,13.568L-19.832,12.847L-20.309,10.39L-19.6,10.063ZM-14.915,119.449C-14.91,119.654 -15.246,119.906 -15.923,120.197C-17.106,119.611 -17.701,119.147 -17.71,118.803C-16.544,118.772 -15.968,118.517 -15.981,118.037C-15.639,118.028 -15.283,118.498 -14.915,119.449M-18.883,75.092L-18.864,75.812L-19.171,75.82L-19.19,75.099L-18.883,75.092ZM-20.815,3.095C-19.513,3.061 -18.676,3.622 -18.299,4.778L-18.709,4.789C-20.244,3.871 -21.288,3.417 -21.834,3.432L-21.843,3.123L-20.815,3.095ZM-22.819,-17.847L-21.685,-17.877L-21.677,-17.569C-21.664,-17.089 -21.899,-16.843 -22.378,-16.83L-23.406,-16.802L-23.414,-17.111C-23.425,-17.522 -23.228,-17.768 -22.819,-17.847M-19.599,113.605L-19.58,114.325C-19.99,114.337 -20.239,114.102 -20.32,113.624L-19.599,113.605ZM-21.817,-7.376L-21.809,-7.068C-21.796,-6.586 -22.028,-6.341 -22.51,-6.328L-22.817,-6.32L-23.546,-6.609C-23.557,-7.021 -23.333,-7.609 -22.872,-8.376C-22.178,-8.051 -21.826,-7.717 -21.817,-7.376M-23.088,10.465C-22.609,10.452 -22.361,10.686 -22.348,11.165L-22.655,11.173C-23.068,11.184 -23.314,10.951 -23.395,10.473L-23.088,10.465ZM-21.529,68.575L-21.512,69.192C-21.922,69.203 -22.17,69.005 -22.249,68.595L-21.529,68.575ZM-20.422,94.381C-20.41,94.861 -20.646,95.106 -21.124,95.119C-21.537,95.13 -21.783,94.897 -21.864,94.419L-20.422,94.381ZM-24.661,-21.298L-22.491,-21.047L-22.885,-20.316C-22.953,-20.314 -23.645,-20.534 -24.96,-20.981L-24.968,-21.29L-24.661,-21.298ZM-21.228,106.651L-19.469,107.014C-20.132,107.855 -20.456,108.551 -20.441,109.098C-20.716,109.106 -21.18,108.434 -21.834,107.077L-21.845,106.667L-21.228,106.651ZM-20.966,89.557L-20.949,90.175L-22.295,89.902L-22.303,89.593L-20.966,89.557ZM-23.593,18.507L-23.582,18.917L-24.199,18.934L-24.21,18.523L-23.593,18.507ZM-18.31,123.348L-18.298,123.76L-20.767,123.826C-21.452,123.845 -21.801,123.615 -21.814,123.133C-20.574,123.307 -19.405,123.378 -18.31,123.348M-23.218,120.702C-23.206,121.182 -23.438,121.428 -23.917,121.44L-24.33,121.451L-24.349,120.732L-23.218,120.702ZM-24.481,88.93L-24.473,89.239L-25.194,89.259L-25.202,88.95L-24.481,88.93ZM-27.687,7.809L-27.379,7.801C-27.374,8.006 -27.226,8.346 -26.938,8.817L-26.927,9.229L-27.958,9.257C-27.965,8.984 -28.111,8.61 -28.399,8.137L-27.687,7.809ZM-22.272,132.923L-21.561,132.595C-20.588,133.051 -20.097,133.381 -20.092,133.586L-20.486,134.318C-22.347,133.887 -23.523,133.678 -24.001,133.691L-25.742,134.046L-26.387,133.033L-26.395,132.725L-22.272,132.923ZM-24.319,106.425L-23.594,106.714L-24.284,107.761C-26.145,107.468 -27.083,107.049 -27.099,106.499L-24.319,106.425ZM-27.062,-7.236L-27.054,-6.927C-27.535,-6.914 -27.974,-6.763 -28.38,-6.479C-29.349,-6.796 -30.085,-7.36 -30.586,-8.17L-30.597,-8.581C-29.065,-7.66 -27.886,-7.214 -27.062,-7.236M-32.138,-0.821L-32.859,-0.801L-32.878,-1.521C-32.4,-1.533 -32.151,-1.299 -32.138,-0.821M-30.998,3.369L-31.285,4.097L-33.044,3.733L-33.053,3.424L-32.765,2.697C-32.354,2.686 -31.766,2.911 -30.998,3.369M-32.534,-4C-32.521,-3.521 -32.754,-3.274 -33.232,-3.26L-33.251,-3.981L-32.534,-4ZM-33.645,73.429C-33.632,73.91 -33.868,74.156 -34.346,74.169L-34.653,74.177L-34.673,73.457L-33.645,73.429ZM-33.673,99.264C-32.9,99.999 -32.305,100.36 -31.895,100.349L-32.185,100.975L-32.155,102.106L-31.831,102.715L-32.437,103.142L-33.568,103.172L-33.626,101.013L-34.271,100.001L-34.291,99.28L-33.673,99.264ZM-34.372,84.668L-34.355,85.284L-35.076,85.304C-35.087,84.893 -34.854,84.681 -34.372,84.668M-34.401,95.166L-34.373,96.196C-34.784,96.207 -35.032,95.974 -35.113,95.494L-35.121,95.186L-34.401,95.166ZM-33.467,91.642L-33.458,91.951L-34.176,91.97C-34.864,91.989 -35.213,91.759 -35.226,91.277L-33.467,91.642ZM-37.381,26.287L-37.361,27.006C-37.688,27.702 -38.019,28.054 -38.361,28.063L-38.671,28.071L-39.403,27.678C-39.414,27.268 -38.741,26.804 -37.381,26.287M-38.459,89.615C-38.447,90.096 -38.682,90.342 -39.161,90.354L-39.471,90.363L-39.49,89.642L-38.459,89.615ZM-58.493,125.558L-58.484,125.867C-58.691,125.872 -59.031,125.985 -59.504,126.203L-59.531,125.175C-59.045,125.437 -58.699,125.564 -58.493,125.558M-59.324,132.889L-59.316,133.198L-60.037,133.217L-60.045,132.908L-59.324,132.889ZM-63.978,-13.655C-62.532,-13.42 -61.801,-13.061 -61.789,-12.582L-64.257,-12.516C-64.667,-12.505 -64.917,-12.738 -64.997,-13.216C-64.791,-13.221 -64.452,-13.368 -63.978,-13.655M-60.752,91.242L-60.722,92.374L-61.853,92.404C-62.195,92.413 -62.551,91.944 -62.919,90.992C-62.234,90.973 -61.514,91.057 -60.752,91.242M-61.967,99.716L-60.937,99.688C-61.374,101.345 -61.797,102.18 -62.208,102.191L-62.618,102.202L-63.35,101.811C-62.84,100.425 -62.377,99.726 -61.967,99.716M-63.777,135.788C-63.768,136.131 -63.516,136.604 -63.018,137.208L-63.01,137.517L-64.16,136.826L-64.188,135.799L-63.777,135.788ZM-65.022,12.618C-65.009,13.1 -65.245,13.346 -65.723,13.359L-66.34,13.375L-67.491,12.685L-66.798,11.638L-65.022,12.618ZM-67.044,-12.852L-68.175,-12.822L-67.784,-13.553C-67.306,-13.566 -67.057,-13.33 -67.044,-12.852M-64.059,125.297L-64.047,125.707L-64.768,125.726L-64.779,125.316L-64.059,125.297ZM-66.185,84.388L-66.166,85.109L-66.576,85.12L-66.595,84.4L-66.185,84.388ZM-64.546,95.565C-64.74,96.05 -64.834,96.395 -64.829,96.6L-65.549,96.62C-66.029,96.566 -66.526,95.994 -67.034,94.91L-64.546,95.565ZM-65.717,90.346L-65.707,90.758L-67.466,90.393L-66.781,89.037C-66.438,89.028 -66.084,89.465 -65.717,90.346M-69.707,6.878L-69.679,7.906L-69.986,7.914L-70.014,6.887L-69.707,6.878ZM-68.265,125.82L-68.256,126.129L-68.977,126.148L-68.985,125.84L-68.265,125.82ZM-71.375,-16.956L-71.363,-16.544L-72.084,-16.525C-72.093,-16.867 -72.345,-17.342 -72.843,-17.946L-72.863,-18.666C-72.377,-18.541 -71.883,-17.972 -71.375,-16.956M-80.544,-5.801L-81.265,-5.781L-81.284,-6.5C-80.806,-6.513 -80.557,-6.279 -80.544,-5.801M-94.692,-22.918C-94.891,-15.02 -94.917,-8.261 -94.766,-2.639C-94.193,3.385 -93.754,6.975 -93.448,8.133C-93.723,8.14 -93.855,8.281 -93.848,8.554C-93.508,11.085 -93.311,13.276 -93.261,15.126L-93.035,23.56C-93.012,24.383 -92.88,25.445 -92.639,26.74C-92.993,28.947 -93.121,36.978 -93.024,50.835C-92.817,50.829 -92.71,50.965 -92.703,51.238L-93.013,51.246C-92.439,54.664 -92.088,58.838 -91.956,63.775L-91.862,67.272L-92.217,69.34C-91.934,69.744 -91.78,70.324 -91.759,71.077L-91.682,73.958L-92.029,76.334C-91.757,76.327 -91.612,76.564 -91.6,77.042C-91.584,77.593 -91.71,78.075 -91.971,78.493C-91.688,78.898 -91.538,79.342 -91.525,79.82L-91.439,83.008C-91.417,83.83 -91.527,84.899 -91.764,86.208C-91.481,86.612 -91.331,87.055 -91.318,87.533C-91.311,87.808 -91.44,88.155 -91.701,88.574C-91.182,90.07 -90.914,91.022 -90.903,91.434L-91.197,92.059L-90.867,92.77L-91.158,93.499C-91.104,95.488 -90.879,100.045 -90.481,107.17L-90.755,108.516C-90.548,108.511 -90.281,109.567 -89.949,111.685C-90.384,113.412 -90.564,115.613 -90.493,118.287L-90.136,120.027C-90.343,120.032 -90.442,120.172 -90.435,120.446C-90.42,120.996 -90.292,121.919 -90.05,123.215C-90.045,123.42 -90.139,123.767 -90.333,124.252L-89.965,126.403L-89.882,129.489C-89.867,130.038 -89.958,130.521 -90.153,130.937C-89.936,131.343 -89.82,131.786 -89.808,132.266L-89.703,136.175C-89.682,136.929 -89.318,137.742 -88.609,138.615C-85.462,138.257 -83.136,138.057 -81.626,138.016L-78.747,137.939L-76.697,137.575L-69.366,138.407C-69.372,138.202 -69.239,138.095 -68.964,138.087C-68.953,138.499 -68.366,138.689 -67.199,138.658L-66.487,138.33L-66.479,138.638C-65.315,138.607 -62.979,138.683 -59.475,138.863C-58.938,138.369 -58.363,138.112 -57.746,138.095C-56.375,138.058 -55.75,135.71 -55.875,131.047L-56.176,119.835L-55.485,118.788L-55.532,117.04L-55.962,116.33C-55.688,116.323 -55.555,116.218 -55.56,116.011L-55.646,112.823C-55.657,112.411 -55.902,112.178 -56.382,112.121L-55.692,111.074L-55.786,107.578C-55.797,107.166 -56.043,106.933 -56.523,106.876L-57.554,106.904L-58.563,107.652L-58.973,107.663L-60.729,107.402L-60.749,106.681L-60.357,105.949L-58.598,106.314L-58.288,106.306C-57.611,106.083 -57.285,105.353 -57.318,104.118L-56.271,104.811L-55.861,104.8L-55.927,102.331L-56.645,102.351L-56.625,103.071L-56.936,103.079L-56.944,102.771C-56.763,101.805 -56.442,100.974 -55.982,100.275L-56.048,97.805C-56.056,97.533 -56.789,96.969 -58.254,96.116L-58.872,96.132C-59.421,96.147 -59.896,96.263 -60.301,96.479C-60.72,96.285 -61.305,96.197 -62.061,96.218C-61.88,95.254 -60.15,94.52 -56.868,94.02C-56.863,94.225 -56.756,94.325 -56.553,94.32L-56.162,93.59L-56.208,91.84C-56.223,91.292 -56.711,90.963 -57.674,90.851L-57.694,90.131L-56.973,90.111C-56.288,90.093 -56.026,87.067 -56.188,81.033L-56.387,73.629L-55.977,73.617C-55.969,73.892 -54.894,75.51 -52.758,78.471C-51.855,81.398 -50.629,83.698 -49.074,85.372C-45.886,91.599 -43.711,94.697 -42.544,94.665L-42.835,95.393C-42.811,96.284 -41.94,98.011 -40.226,100.573C-39.478,102.886 -38.177,104.017 -36.325,103.967L-36.316,104.276L-36.626,104.284C-37.396,103.826 -37.984,103.599 -38.395,103.611L-38.805,103.621C-37.029,108.447 -36.124,111.476 -36.09,112.71C-33.665,116.214 -32.442,118.273 -32.425,118.889L-32.735,118.897C-31.773,124.018 -31.123,126.575 -30.78,126.566C-30.697,129.65 -28.991,133.103 -25.665,136.926L-24.533,136.895C-24.12,136.884 -23.922,136.639 -23.936,136.159C-23.661,136.152 -23.28,136.244 -22.796,136.438L-22.187,136.113L-22.179,136.421L-20.439,136.066L-20.411,137.094L-19.998,137.082L-19.286,136.755C-19.28,136.961 -19.177,137.06 -18.97,137.055C-18.421,137.04 -17.945,136.926 -17.537,136.707L-16.912,137L-16.202,136.672C-16.197,136.879 -16.055,136.977 -15.781,136.969L-13.725,136.914C-13.108,136.898 -12.429,136.64 -11.686,136.14C-11.679,136.414 -11.297,136.643 -10.536,136.828L-9.217,136.074C-9.21,136.348 -9.07,136.48 -8.796,136.473L-8.489,136.465L-7.779,136.035C-7.771,136.309 -7.665,136.443 -7.458,136.437L-4.271,136.352C-3.312,136.326 -2.045,136.156 -0.476,135.839C-0.126,136.104 0.598,136.221 1.694,136.192C4.63,135.702 6.466,135.071 7.202,134.294C7.114,131.003 6.588,129.371 5.628,129.397C5.623,129.19 5.759,129.084 6.034,129.077C4.972,127.94 4.349,126.412 4.161,124.495C4.365,124.489 4.465,124.385 4.46,124.178C4.455,123.972 4.09,123.159 3.366,121.738C3.559,121.321 3.65,120.873 3.637,120.392L3.626,119.982C2.941,120 2.589,119.666 2.571,118.98C2.846,118.972 2.979,118.866 2.973,118.66C2.966,118.387 2.826,118.252 2.552,118.26C-0.062,112.911 -1.76,109.799 -2.537,108.927L-2.243,108.302C-2.741,107.697 -2.996,107.122 -3.011,106.573L-4.349,106.609C-5.376,106.636 -6.333,106.867 -7.211,107.303C-7.217,107.097 -7.323,106.997 -7.53,107.003C-7.206,106.31 -6.872,105.956 -6.526,105.947L-5.806,105.928L-3.332,106.17C-3.345,105.691 -3.694,105.459 -4.379,105.477C-4.384,105.272 -4.284,105.166 -4.077,105.16C-4.088,104.748 -4.336,104.516 -4.817,104.459L-4.426,103.729C-5.413,102.726 -5.91,102.055 -5.919,101.711L-5.612,101.702L-5.62,101.394C-6.831,99.779 -7.438,98.836 -7.446,98.56L-7.052,97.933C-7.898,96.995 -8.496,96.53 -8.839,96.539L-8.886,94.791C-8.917,93.626 -9.275,93.052 -9.96,93.07C-10.446,90.271 -11.447,88.89 -12.953,88.93L-12.589,87.171C-14.097,84.741 -14.857,83.15 -14.878,82.394C-14.891,81.916 -15.482,81.691 -16.646,81.722L-16.684,80.283L-15.994,79.234L-16.002,78.926L-17.844,75.476C-17.855,75.064 -17.623,74.818 -17.143,74.736C-19.094,71.084 -20.084,68.639 -20.118,67.405L-22.343,65.098C-21.726,65.081 -21.361,64.593 -21.248,63.628L-21.977,63.338L-22.689,63.666L-22.708,62.946C-22.023,62.928 -21.687,62.679 -21.7,62.199L-21.727,61.17L-23.503,60.189C-24.308,55.751 -24.953,53.537 -25.431,53.55C-25.493,51.22 -24.496,48.757 -22.437,46.162L-22.897,44.426C-22.907,44.083 -22.678,43.595 -22.216,42.965L-22.224,42.657L-22.972,41.648C-22.012,41.622 -21.198,41.258 -20.531,40.553C-19.008,35.846 -17.914,33.245 -17.241,32.745L-17.252,32.334L-17.576,31.725C-16.977,31.024 -16.551,30.293 -16.296,29.53L-16.625,28.817C-16.212,28.806 -15.752,28.11 -15.24,26.721L-15.672,26.013C-15.246,23.944 -14.795,22.902 -14.314,22.889L-14.344,21.758C-14.35,21.553 -14.013,21.337 -13.333,21.113C-12.848,18.699 -11.99,16.205 -10.753,13.633L-11.083,12.921C-9.256,11.913 -8.397,9.35 -8.508,5.236L-7.782,5.525L-7.472,5.517C-7.835,4.841 -8.188,4.506 -8.527,4.515C-10.378,4.565 -11.325,3.871 -11.364,2.431L-10.054,1.366L-9.643,1.355L-7.856,2.748C-7.582,2.741 -7.025,1.799 -6.183,-0.076L-6.202,-0.796L-6.632,-1.505C-6.451,-2.469 -6.088,-2.961 -5.539,-2.975L-5.586,-4.723L-2.967,-10.66L-2.979,-11.072C-2.991,-11.551 -3.34,-11.782 -4.025,-11.763L-4.034,-12.072L-3.417,-12.089L-2.031,-14.186C-2.038,-14.459 -2.145,-14.593 -2.352,-14.588C-2.189,-16.24 -1.869,-17.071 -1.387,-17.084C-1.4,-17.563 -1.551,-18.007 -1.836,-18.41C-1.584,-19.241 -1.458,-19.723 -1.462,-19.862C-1.495,-21.095 -2.102,-21.903 -3.279,-22.282L-3.986,-21.853C-5.845,-22.076 -6.781,-22.395 -6.792,-22.806C-7.067,-22.799 -7.2,-22.693 -7.194,-22.486C-7.401,-22.481 -7.747,-22.575 -8.23,-22.767C-8.712,-22.754 -9.155,-22.64 -9.56,-22.423L-10.289,-22.712L-11.001,-22.384L-11.727,-22.673L-12.439,-22.345L-12.448,-22.654C-12.654,-22.648 -12.994,-22.537 -13.467,-22.318C-14.778,-22.489 -15.809,-22.564 -16.562,-22.544L-18.002,-22.505L-18.715,-22.177L-18.723,-22.486C-19.202,-22.473 -19.645,-22.359 -20.05,-22.141C-20.942,-22.117 -22.696,-22.309 -25.317,-22.721C-25.304,-22.239 -25.537,-21.994 -26.015,-21.981L-25.689,-21.27L-26.409,-21.251C-27.045,-21.918 -28.088,-22.474 -29.54,-22.916C-30.477,-21.929 -31.477,-19.571 -32.541,-15.836L-32.522,-15.117L-31.812,-15.547L-30.374,-15.586C-30.361,-15.106 -30.594,-14.86 -31.075,-14.847L-30.746,-14.135C-31.021,-14.128 -31.829,-13.522 -33.168,-12.321L-33.196,-13.349L-33.503,-13.342C-34.376,-12.631 -37.05,-7.447 -41.526,2.211C-38.692,2.958 -37.267,3.64 -37.25,4.258L-37.544,4.883C-38.311,4.491 -39.034,4.305 -39.72,4.324L-41.468,4.371C-41.881,4.382 -42.998,6.265 -44.815,10.018C-48.337,19.515 -52.819,30.133 -58.268,41.874L-58.578,41.882C-59.127,41.897 -59.52,41.223 -59.764,39.856L-59.794,38.724L-59.431,36.965C-59.705,36.972 -59.844,36.873 -59.849,36.668C-59.87,35.915 -59.75,35.326 -59.486,34.908C-59.5,34.361 -59.649,33.883 -59.935,33.48C-59.765,29.564 -59.71,26.543 -59.767,24.417L-60.143,10.429C-62.489,9.875 -63.668,9.428 -63.678,9.083L-62.957,9.064C-62.34,9.048 -61.648,9.27 -60.879,9.728L-60.592,9.001L-61.03,-7.353L-60.714,-10.86C-60.988,-10.853 -61.128,-10.987 -61.135,-11.261L-60.761,-12.61C-61.359,-19.592 -62.173,-23.069 -63.201,-23.042L-65.566,-22.978C-66.594,-22.951 -67.563,-23.164 -68.465,-23.622C-70.792,-23.354 -72.642,-23.201 -74.012,-23.164L-74.732,-23.145L-76.796,-23.398C-77.272,-23.18 -77.612,-23.067 -77.815,-23.062C-80.901,-22.979 -83.034,-23.161 -84.213,-23.61L-85.538,-23.163C-86.636,-23.134 -89.315,-23.198 -93.572,-23.359C-94.046,-23.071 -94.42,-22.925 -94.692,-22.918" style="fill:white;fill-rule:nonzero;"/>
            </g>
        </g>
        <g transform="matrix(4.166667,0,0,4.166667,0,0)">
            <g transform="matrix(1,0,0,1,159.47915,411.076391)">
                <path d="M0,-7.066C0.378,-6.712 0.567,-6.227 0.567,-5.615C0.567,-5.001 0.378,-4.517 0,-4.162C-0.378,-3.808 -0.963,-3.63 -1.754,-3.63L-3.834,-3.63L-3.834,-7.598L-1.754,-7.598C-0.963,-7.598 -0.378,-7.42 0,-7.066M5.386,-2.239C6.015,-3.181 6.328,-4.307 6.328,-5.615C6.328,-6.921 6.015,-8.056 5.386,-9.016C4.756,-9.976 3.864,-10.712 2.709,-11.229C1.557,-11.746 0.189,-12.003 -1.391,-12.003L-9.548,-12.003L-9.548,4.937L-3.834,4.937L-3.834,0.677L-2.279,0.677L0.594,4.937L6.691,4.937L3.11,-0.313C4.055,-0.797 4.838,-1.417 5.386,-2.239" style="fill:white;fill-rule:nonzero;"/>
            </g>
        </g>
        <g transform="matrix(4.166667,0,0,4.166667,0,0)">
            <g transform="matrix(1,0,0,1,184.46645,405.608591)">
                <path d="M0,3.87L7.164,3.87L7.164,-0.242L0,-0.242L0,-2.228L8.157,-2.228L8.157,-6.535L-5.613,-6.535L-5.613,10.405L8.47,10.405L8.47,6.098L0,6.098L0,3.87Z" style="fill:white;fill-rule:nonzero;"/>
            </g>
        </g>
        <g transform="matrix(4.166667,0,0,4.166667,0,0)">
            <g transform="matrix(1,0,0,1,217.67205,405.354491)">
                <path d="M0,4.378C-0.339,4.984 -0.812,5.439 -1.418,5.746C-2.021,6.053 -2.727,6.207 -3.533,6.207L-5.929,6.207L-5.929,-1.829L-3.533,-1.829C-2.727,-1.829 -2.021,-1.675 -1.418,-1.368C-0.812,-1.063 -0.339,-0.612 0,-0.015C0.337,0.582 0.508,1.309 0.508,2.166C0.508,3.037 0.337,3.773 0,4.378M1.693,-5.253C0.257,-5.938 -1.406,-6.281 -3.294,-6.281L-11.643,-6.281L-11.643,10.659L-3.294,10.659C-1.406,10.659 0.257,10.316 1.693,9.631C3.129,8.945 4.251,7.968 5.058,6.703C5.864,5.436 6.266,3.923 6.266,2.166C6.266,0.422 5.864,-1.078 5.058,-2.337C4.251,-3.595 3.129,-4.567 1.693,-5.253" style="fill:white;fill-rule:nonzero;"/>
            </g>
        </g>
        <g transform="matrix(4.166667,0,0,4.166667,0,0)">
            <g transform="matrix(1,0,0,1,242.52655,405.608591)">
                <path d="M0,3.87L7.164,3.87L7.164,-0.242L0,-0.242L0,-2.228L8.153,-2.228L8.153,-6.535L-5.616,-6.535L-5.616,10.405L8.47,10.405L8.47,6.098L0,6.098L0,3.87Z" style="fill:white;fill-rule:nonzero;"/>
            </g>
        </g>
        <g transform="matrix(4.166667,0,0,4.166667,0,0)">
            <g transform="matrix(1,0,0,1,285.77355,403.950891)">
                <path d="M0,7.185C-0.614,8.228 -1.474,9.04 -2.579,9.631C-3.684,10.219 -4.987,10.515 -6.487,10.515L-11.498,10.515L-11.498,-3.329L-6.487,-3.329C-4.987,-3.329 -3.684,-3.034 -2.579,-2.446C-1.474,-1.858 -0.614,-1.045 0,-0.014C0.611,1.019 0.919,2.222 0.919,3.593C0.919,4.949 0.611,6.145 0,7.185M-1.634,-3.802C-2.999,-4.52 -4.585,-4.877 -6.39,-4.877L-13.288,-4.877L-13.288,12.062L-6.39,12.062C-4.585,12.062 -2.999,11.705 -1.634,10.984C-0.272,10.269 0.789,9.271 1.548,7.997C2.304,6.721 2.686,5.253 2.686,3.593C2.686,1.93 2.304,0.461 1.548,-0.812C0.789,-2.088 -0.272,-3.084 -1.634,-3.802" style="fill:white;fill-rule:nonzero;"/>
            </g>
        </g>
        <g transform="matrix(4.166667,0,0,4.166667,0,0)">
            <g transform="matrix(1,0,0,1,305.15635,400.621491)">
                <path d="M0,13.844L0,7.552L8.762,7.552L8.762,6.027L0,6.027L0,0L9.826,0L9.826,-1.548L-1.79,-1.548L-1.79,15.392L10.189,15.392L10.189,13.844L0,13.844Z" style="fill:white;fill-rule:nonzero;"/>
            </g>
        </g>
        <g transform="matrix(4.166667,0,0,4.166667,0,0)">
            <g transform="matrix(1,0,0,1,333.30145,412.481191)">
                <path d="M0,-8.713L5.761,-8.713L5.761,-2.276C5.761,-0.873 5.146,-0.17 3.92,-0.17C3.454,-0.17 3.001,-0.311 2.567,-0.595C2.13,-0.876 1.687,-1.292 1.235,-1.841L-1.837,1.789C-1.128,2.614 -0.242,3.237 0.824,3.665C1.888,4.094 3.082,4.307 4.405,4.307C6.68,4.307 8.414,3.733 9.607,2.587C10.804,1.444 11.4,-0.291 11.4,-2.615L11.4,-13.02L0,-13.02L0,-8.713Z" style="fill:white;fill-rule:nonzero;"/>
            </g>
        </g>
        <g transform="matrix(4.166667,0,0,4.166667,0,0)">
            <g transform="matrix(1,0,0,1,371.80725,406.153091)">
                <path d="M0,3.556C-0.195,4.079 -0.464,4.525 -0.81,4.886C-1.158,5.249 -1.56,5.53 -2.021,5.722C-2.481,5.916 -2.978,6.011 -3.51,6.011C-4.042,6.011 -4.538,5.916 -4.999,5.722C-5.457,5.53 -5.861,5.249 -6.207,4.886C-6.556,4.525 -6.824,4.079 -7.019,3.556C-7.211,3.033 -7.309,2.439 -7.309,1.778C-7.309,1.116 -7.211,0.522 -7.019,-0.001C-6.824,-0.527 -6.556,-0.97 -6.207,-1.333C-5.861,-1.696 -5.457,-1.974 -4.999,-2.166C-4.538,-2.361 -4.042,-2.459 -3.51,-2.459C-2.978,-2.459 -2.481,-2.361 -2.021,-2.166C-1.56,-1.974 -1.158,-1.696 -0.81,-1.333C-0.464,-0.97 -0.195,-0.527 0,-0.001C0.195,0.522 0.29,1.116 0.29,1.778C0.29,2.439 0.195,3.033 0,3.556M3.338,-4.577C2.484,-5.375 1.477,-5.992 0.313,-6.426C-0.848,-6.863 -2.121,-7.079 -3.51,-7.079C-4.88,-7.079 -6.151,-6.863 -7.321,-6.426C-8.491,-5.992 -9.504,-5.375 -10.357,-4.577C-11.214,-3.777 -11.879,-2.84 -12.354,-1.768C-12.83,-0.695 -13.07,0.487 -13.07,1.778C-13.07,3.051 -12.83,4.23 -12.354,5.311C-11.879,6.392 -11.214,7.331 -10.357,8.129C-9.504,8.93 -8.491,9.544 -7.321,9.981C-6.151,10.416 -4.88,10.635 -3.51,10.635C-2.121,10.635 -0.848,10.416 0.313,9.981C1.477,9.544 2.484,8.93 3.338,8.129C4.195,7.331 4.86,6.392 5.335,5.311C5.811,4.23 6.05,3.051 6.05,1.778C6.05,0.487 5.811,-0.695 5.335,-1.768C4.86,-2.84 4.195,-3.777 3.338,-4.577" style="fill:white;fill-rule:nonzero;"/>
            </g>
        </g>
        <g transform="matrix(4.166667,0,0,4.166667,0,0)">
            <g transform="matrix(1,0,0,1,399.77355,406.515291)">
                <path d="M0,2.831L-4.031,-7.054L-10.179,-7.054L-3.015,9.885L2.599,9.885L9.763,-7.054L4.149,-7.054L0,2.831Z" style="fill:white;fill-rule:nonzero;"/>
            </g>
        </g>
        <g transform="matrix(4.166667,0,0,4.166667,0,0)">
            <g transform="matrix(1,0,0,1,427.80825,405.995791)">
                <path d="M0,3.87L7.164,3.87L7.164,-0.242L0,-0.242L0,-2.228L8.157,-2.228L8.157,-6.535L-5.613,-6.535L-5.613,10.405L8.47,10.405L8.47,6.098L0,6.098L0,3.87Z" style="fill:white;fill-rule:nonzero;"/>
            </g>
        </g>
        <g transform="matrix(4.166667,0,0,4.166667,0,0)">
            <g transform="matrix(1,0,0,1,461.71405,408.698191)">
                <path d="M0,-1.535L-6.437,-9.237L-11.132,-9.237L-11.132,7.702L-5.566,7.702L-5.566,-0.002L0.872,7.702L5.566,7.702L5.566,-9.237L0,-9.237L0,-1.535Z" style="fill:white;fill-rule:nonzero;"/>
            </g>
        </g>
        <g transform="matrix(4.166667,0,0,4.166667,0,0)">
            <g transform="matrix(1,0,0,1,495.83555,407.012191)">
                <path d="M0,1.837C-0.337,1.24 -0.786,0.756 -1.341,0.387C-1.899,0.014 -2.508,-0.284 -3.17,-0.512C-3.832,-0.736 -4.497,-0.913 -5.167,-1.043C-5.834,-1.17 -6.449,-1.291 -7.004,-1.407C-7.563,-1.519 -8.009,-1.661 -8.349,-1.829C-8.688,-1.997 -8.857,-2.228 -8.857,-2.517C-8.857,-2.712 -8.789,-2.89 -8.65,-3.052C-8.514,-3.212 -8.284,-3.342 -7.962,-3.439C-7.64,-3.537 -7.203,-3.584 -6.653,-3.584C-5.912,-3.584 -5.149,-3.477 -4.366,-3.268C-3.583,-3.058 -2.774,-2.745 -1.935,-2.325L-0.216,-6.464C-1.105,-6.963 -2.104,-7.336 -3.217,-7.578C-4.331,-7.82 -5.459,-7.938 -6.605,-7.938C-8.349,-7.938 -9.805,-7.682 -10.975,-7.164C-12.145,-6.647 -13.022,-5.959 -13.613,-5.097C-14.201,-4.234 -14.497,-3.277 -14.497,-2.228C-14.497,-1.324 -14.325,-0.571 -13.988,0.035C-13.648,0.641 -13.2,1.128 -12.644,1.498C-12.089,1.87 -11.474,2.168 -10.804,2.396C-10.136,2.62 -9.471,2.8 -8.81,2.939C-8.148,3.075 -7.536,3.205 -6.981,3.326C-6.425,3.447 -5.977,3.595 -5.637,3.772C-5.3,3.952 -5.128,4.195 -5.128,4.499C-5.128,4.694 -5.203,4.859 -5.347,4.995C-5.492,5.134 -5.722,5.237 -6.039,5.312C-6.352,5.382 -6.783,5.42 -7.333,5.42C-8.269,5.42 -9.232,5.279 -10.225,4.995C-11.217,4.714 -12.115,4.339 -12.922,3.87L-14.762,8.032C-13.906,8.549 -12.818,8.969 -11.495,9.291C-10.171,9.613 -8.801,9.775 -7.38,9.775C-5.622,9.775 -4.163,9.512 -2.999,8.989C-1.837,8.463 -0.963,7.772 -0.375,6.907C0.216,6.044 0.508,5.096 0.508,4.065C0.508,3.175 0.34,2.434 0,1.837" style="fill:white;fill-rule:nonzero;"/>
            </g>
        </g>
    </g>
</svg>
